<svg width="42" height="41" viewBox="0 0 42 41" fill="none" xmlns="http://www.w3.org/2000/svg">
<circle cx="20.988" cy="20.6174" r="20.0945" fill="white"/>
<path d="M15.38 24.7901L14.6627 25.5074L16.0974 26.9422L16.8148 26.2248L15.38 24.7901ZM26.8935 15.7258C26.8935 15.1655 26.4393 14.7113 25.879 14.7113L16.7484 14.7113C16.1881 14.7113 15.7339 15.1655 15.7339 15.7258C15.7339 16.2861 16.1881 16.7403 16.7484 16.7403H24.8645V24.8565C24.8645 25.4168 25.3187 25.871 25.879 25.871C26.4393 25.871 26.8935 25.4168 26.8935 24.8565L26.8935 15.7258ZM16.8148 26.2248L26.5964 16.4432L25.1617 15.0085L15.38 24.7901L16.8148 26.2248Z" fill="black"/>
</svg>
