<svg width="26" height="26" viewBox="0 0 26 26" fill="none" xmlns="http://www.w3.org/2000/svg">
<g clip-path="url(#clip0_10_179)">
<path d="M13.068 0.101318C6.1728 0.101318 0.562149 5.71041 0.562149 12.6063C0.562149 19.5023 6.1728 25.1114 13.068 25.1114C19.9631 25.1114 25.5738 19.5023 25.5738 12.6063C25.5738 5.71041 19.9631 0.101318 13.068 0.101318ZM13.068 24.2784C6.63216 24.2784 1.39665 19.0421 1.39665 12.6063C1.39665 6.17055 6.63216 0.934259 13.068 0.934259C19.5037 0.934259 24.7393 6.17055 24.7393 12.6063C24.7393 19.0421 19.5037 24.2784 13.068 24.2784Z" fill="#596771"/>
<path d="M13.068 24.2784C6.63216 24.2784 1.39665 19.0421 1.39665 12.6063C1.39665 6.17055 6.63216 0.934259 13.068 0.934259C19.5037 0.934259 24.7393 6.17055 24.7393 12.6063C24.7393 19.0421 19.5037 24.2784 13.068 24.2784Z" fill="white"/>
<path d="M15.7686 5.52447H13.7089C11.0856 5.49822 10.7506 7.12177 10.7506 8.87887V10.1566H9.59254C9.5402 10.1496 9.48695 10.1547 9.43693 10.1717C9.38691 10.1886 9.34147 10.2168 9.30413 10.2542C9.26679 10.2915 9.23856 10.3369 9.22163 10.387C9.20471 10.437 9.19954 10.4902 9.20653 10.5426V12.8586C9.19954 12.9109 9.20471 12.9642 9.22163 13.0142C9.23856 13.0642 9.26679 13.1097 9.30413 13.147C9.34147 13.1843 9.38691 13.2126 9.43693 13.2295C9.48695 13.2464 9.5402 13.2516 9.59254 13.2446H10.7506V19.0347C10.7441 19.0871 10.7498 19.1404 10.767 19.1903C10.7843 19.2402 10.8128 19.2855 10.8502 19.3228C10.8877 19.36 10.9332 19.3882 10.9832 19.4052C11.0332 19.4221 11.0865 19.4275 11.1389 19.4207H13.4974C13.7251 19.447 13.9096 19.2625 13.8371 19.0347L13.8386 13.2446H15.7686C15.821 13.2516 15.8742 13.2464 15.9243 13.2295C15.9743 13.2126 16.0197 13.1843 16.0571 13.147C16.0944 13.1097 16.1226 13.0642 16.1396 13.0142C16.1565 12.9642 16.1616 12.9109 16.1547 12.8586V10.5426C16.1616 10.4902 16.1565 10.437 16.1396 10.387C16.1226 10.3369 16.0944 10.2915 16.0571 10.2542C16.0197 10.2168 15.9743 10.1886 15.9243 10.1717C15.8742 10.1547 15.821 10.1496 15.7686 10.1566H13.8363L13.8386 8.99853C13.9135 8.50522 13.9135 8.5855 14.3713 8.61253H15.7524C15.8597 8.58859 15.974 8.60172 16.0543 8.52374C16.1346 8.44577 16.1809 8.33923 16.1539 8.22652V5.91048C16.161 5.85818 16.156 5.80494 16.1391 5.75491C16.1223 5.70489 16.0942 5.65942 16.0569 5.62206C16.0196 5.5847 15.9742 5.55646 15.9242 5.53953C15.8742 5.5226 15.821 5.51745 15.7686 5.52447ZM15.3556 7.79728L14.3875 7.76022C13.1886 7.76022 13.0882 8.41103 13.0882 9.07728L13.0851 10.541C13.085 10.5952 13.0956 10.6489 13.1163 10.699C13.137 10.7491 13.1673 10.7947 13.2056 10.833C13.2439 10.8714 13.2894 10.9018 13.3394 10.9226C13.3895 10.9434 13.4432 10.954 13.4974 10.954H15.3826V12.4456H13.4989C13.3895 12.4456 13.2846 12.489 13.2071 12.5663C13.1297 12.6436 13.0861 12.7484 13.0859 12.8578L13.0851 18.6487H11.5226V12.8586C11.5226 12.6309 11.3674 12.4463 11.1389 12.4463H9.97854V10.9548H11.1389C11.1931 10.9549 11.2467 10.9443 11.2968 10.9236C11.3468 10.903 11.3924 10.8726 11.4307 10.8344C11.5079 10.7564 11.5218 10.6514 11.5218 10.5418V8.8781C11.5218 7.14724 11.8715 6.32273 13.7081 6.32273H15.3548L15.3556 7.79728Z" fill="#596771"/>
<path d="M15.3556 7.79728L14.3875 7.76022C13.1886 7.76022 13.0882 8.41103 13.0882 9.07728L13.0851 10.541C13.085 10.5952 13.0956 10.6489 13.1163 10.699C13.137 10.7491 13.1673 10.7947 13.2056 10.833C13.2439 10.8714 13.2894 10.9018 13.3394 10.9226C13.3895 10.9434 13.4432 10.954 13.4974 10.954H15.3826V12.4456H13.4989C13.3895 12.4456 13.2846 12.489 13.2071 12.5663C13.1297 12.6436 13.0861 12.7484 13.0859 12.8578L13.0851 18.6487H11.5226V12.8586C11.5226 12.6309 11.3674 12.4463 11.1389 12.4463H9.97854V10.9548H11.1389C11.1931 10.9549 11.2467 10.9443 11.2968 10.9236C11.3468 10.903 11.3924 10.8726 11.4307 10.8344C11.5079 10.7564 11.5218 10.6514 11.5218 10.5418V8.8781C11.5218 7.14724 11.8715 6.32273 13.7081 6.32273H15.3548L15.3556 7.79728Z" fill="#596771"/>
</g>
<defs>
<clipPath id="clip0_10_179">
<rect width="25.5203" height="25.5203" fill="white" transform="translate(0.305664 0.101562)"/>
</clipPath>
</defs>
</svg>
