<svg width="26" height="26" viewBox="0 0 26 26" fill="none" xmlns="http://www.w3.org/2000/svg">
<path d="M12.5702 0.510254C5.67499 0.510254 0.0643463 6.11934 0.0643463 13.0153C0.0643463 19.9112 5.67499 25.5203 12.5702 25.5203C19.4653 25.5203 25.076 19.9112 25.076 13.0153C25.076 6.11934 19.4653 0.510254 12.5702 0.510254ZM12.5702 24.6874C6.13436 24.6874 0.898846 19.4511 0.898846 13.0153C0.898846 6.57949 6.13436 1.34319 12.5702 1.34319C19.0059 1.34319 24.2415 6.57949 24.2415 13.0153C24.2415 19.4511 19.0059 24.6874 12.5702 24.6874Z" fill="#596771"/>
<path d="M12.5702 24.6874C6.13436 24.6874 0.898846 19.4511 0.898846 13.0153C0.898846 6.57949 6.13436 1.34319 12.5702 1.34319C19.0059 1.34319 24.2415 6.57949 24.2415 13.0153C24.2415 19.4511 19.0059 24.6874 12.5702 24.6874Z" fill="white"/>
<path d="M9.57108 18.3474H7.0905V10.3647H9.57108V18.3474Z" fill="#596771"/>
<path d="M8.31548 9.38467C7.532 9.38467 7.02543 8.8296 7.02543 8.14311C7.02543 7.44257 7.54732 6.9041 8.34738 6.9041C9.14744 6.9041 9.63743 7.44257 9.65274 8.14311C9.65274 8.8296 9.14744 9.38467 8.31548 9.38467Z" fill="#596771"/>
<path d="M18.6308 18.3474H16.1502V13.9235C16.1502 12.8937 15.7904 12.1945 14.8933 12.1945C14.2081 12.1945 13.8011 12.6679 13.6212 13.1234C13.5548 13.2855 13.5382 13.5151 13.5382 13.7435V18.3461H11.0564V12.9103C11.0564 11.9137 11.0245 11.0805 10.9913 10.3634H13.1465L13.26 11.4722H13.3098C13.6365 10.9516 14.4365 10.1835 15.7751 10.1835C17.4071 10.1835 18.6308 11.277 18.6308 13.6274V18.3474Z" fill="#596771"/>
</svg>
