<svg width="27" height="27" viewBox="0 0 27 27" fill="none" xmlns="http://www.w3.org/2000/svg">
<g clip-path="url(#clip0_10_39)">
<path d="M13.5283 0.51001C6.63311 0.51001 1.02246 6.1191 1.02246 13.015C1.02246 19.911 6.63311 25.5201 13.5283 25.5201C20.4234 25.5201 26.0341 19.911 26.0341 13.015C26.0341 6.1191 20.4234 0.51001 13.5283 0.51001ZM13.5283 24.6871C7.09247 24.6871 1.85696 19.4508 1.85696 13.015C1.85696 6.57924 7.09247 1.34295 13.5283 1.34295C19.9641 1.34295 25.1996 6.57924 25.1996 13.015C25.1996 19.4508 19.9641 24.6871 13.5283 24.6871Z" fill="#596771"/>
<path d="M13.5283 24.6871C7.09247 24.6871 1.85696 19.4508 1.85696 13.015C1.85696 6.57924 7.09247 1.34295 13.5283 1.34295C19.9641 1.34295 25.1996 6.57924 25.1996 13.015C25.1996 19.4508 19.9641 24.6871 13.5283 24.6871Z" fill="white"/>
<path fill-rule="evenodd" clip-rule="evenodd" d="M19.9084 17.9777C19.9084 18.7573 19.2703 19.3953 18.4907 19.3953H8.56585C7.7862 19.3953 7.14819 18.7573 7.14819 17.9777V8.05283C7.14819 7.27319 7.7862 6.63518 8.56585 6.63518H18.4907C19.2703 6.63518 19.9084 7.27319 19.9084 8.05283V17.9777ZM16.2351 15.7221C16.953 15.0042 17.3563 14.0305 17.3563 13.0153C17.3563 12.7971 17.3334 12.584 17.2938 12.3773H18.6323V17.4775C18.6323 17.6475 18.5649 17.8106 18.4448 17.9309C18.3247 18.0512 18.1618 18.119 17.9918 18.1193H9.06605C8.71131 18.1193 8.42421 17.8322 8.42421 17.4775V12.3773H9.76275C9.72319 12.584 9.70023 12.7971 9.70023 13.0153C9.70023 14.0305 10.1035 15.0042 10.8214 15.7221C11.5393 16.44 12.513 16.8433 13.5283 16.8433C14.5435 16.8433 15.5172 16.44 16.2351 15.7221ZM14.5051 15.3727C14.1954 15.5011 13.8635 15.5672 13.5283 15.5673C12.8513 15.5675 12.2019 15.2987 11.7231 14.8201C11.2442 14.3415 10.9751 13.6923 10.975 13.0153C10.9748 12.3382 11.2436 11.6889 11.7222 11.2101C12.2008 10.7312 12.85 10.4621 13.527 10.462C13.8622 10.4619 14.1942 10.5278 14.5039 10.656C14.8136 10.7842 15.0951 10.9722 15.3322 11.2092C15.5693 11.4461 15.7574 11.7275 15.8858 12.0372C16.0141 12.3468 16.0802 12.6788 16.0803 13.014C16.0804 13.3492 16.0144 13.6812 15.8862 13.9909C15.758 14.3006 15.5701 14.5821 15.3331 14.8192C15.0961 15.0563 14.8148 15.2444 14.5051 15.3727ZM18.1207 10.3356H16.5907C16.3802 10.3356 16.2079 10.1634 16.2066 9.95282V8.42288C16.2066 8.32101 16.2471 8.22332 16.3191 8.15129C16.3912 8.07926 16.4888 8.03879 16.5907 8.03879H18.1207C18.2225 8.03879 18.3202 8.07926 18.3922 8.15129C18.4643 8.22332 18.5047 8.32101 18.5047 8.42288V9.95282C18.5044 10.0545 18.4638 10.1518 18.3918 10.2236C18.3198 10.2953 18.2223 10.3356 18.1207 10.3356Z" fill="#596771"/>
</g>
<defs>
<clipPath id="clip0_10_39">
<rect width="25.5203" height="25.5203" fill="white" transform="translate(0.767578 0.509766)"/>
</clipPath>
</defs>
</svg>
