<svg width="287" height="308" viewBox="0 0 287 308" fill="none" xmlns="http://www.w3.org/2000/svg">
<rect width="286.457" height="307.57" rx="6.61281" fill="#142222"/>
<path d="M43.6336 122.162C42.1121 122.162 40.7722 121.807 39.6138 121.099C38.4727 120.39 37.5737 119.378 36.9167 118.064C36.277 116.75 35.9572 115.168 35.9572 113.318C35.9572 111.486 36.277 109.921 36.9167 108.624C37.5737 107.328 38.4727 106.342 39.6138 105.668C40.7722 104.976 42.1121 104.631 43.6336 104.631C45.155 104.631 46.4863 104.976 47.6274 105.668C48.7857 106.342 49.6848 107.328 50.3245 108.624C50.9815 109.921 51.31 111.486 51.31 113.318C51.31 115.168 50.9815 116.75 50.3245 118.064C49.6848 119.378 48.7857 120.39 47.6274 121.099C46.4863 121.807 45.155 122.162 43.6336 122.162ZM43.6336 119.05C44.4116 119.05 45.0772 118.825 45.6305 118.375C46.201 117.909 46.6332 117.252 46.9272 116.404C47.2384 115.557 47.394 114.529 47.394 113.318C47.394 112.195 47.2384 111.235 46.9272 110.44C46.6332 109.627 46.201 109.005 45.6305 108.572C45.0772 108.14 44.4116 107.924 43.6336 107.924C42.8728 107.924 42.2072 108.14 41.6367 108.572C41.0661 109.005 40.6252 109.627 40.314 110.44C40.0201 111.235 39.8732 112.195 39.8732 113.318C39.8732 114.529 40.0201 115.557 40.314 116.404C40.6252 117.252 41.0661 117.909 41.6367 118.375C42.2072 118.825 42.8728 119.05 43.6336 119.05ZM49.2093 126.571C47.3594 126.571 45.8034 126.112 44.5412 125.196C43.2791 124.28 42.3542 123.121 41.7663 121.721L45.6564 121.332C45.8639 121.868 46.1837 122.291 46.616 122.603C47.0482 122.931 47.5236 123.165 48.0423 123.303C48.5783 123.441 49.1142 123.51 49.6502 123.51C50.0133 123.51 50.3504 123.484 50.6616 123.433C50.9901 123.381 51.2754 123.32 51.5174 123.251L52.1917 126C51.8978 126.156 51.4915 126.285 50.9728 126.389C50.4542 126.51 49.8663 126.571 49.2093 126.571ZM57.4198 122.162C56.6418 122.162 55.9589 121.989 55.371 121.643C54.8005 121.297 54.3596 120.831 54.0484 120.243C53.7372 119.655 53.5816 118.998 53.5816 118.272C53.5816 116.889 54.1521 115.825 55.2932 115.082C56.4343 114.321 58.2756 113.811 60.8171 113.552C60.7998 113.171 60.7134 112.852 60.5578 112.592C60.4195 112.316 60.2034 112.108 59.9095 111.97C59.6155 111.814 59.2438 111.736 58.7943 111.736C58.2583 111.736 57.7137 111.831 57.1605 112.022C56.6072 112.212 56.0107 112.488 55.371 112.852L54.0225 110.362C54.5757 110.016 55.1463 109.722 55.7341 109.48C56.3219 109.221 56.9271 109.022 57.5495 108.884C58.1892 108.745 58.8462 108.676 59.5204 108.676C60.627 108.676 61.5519 108.892 62.2954 109.325C63.0561 109.74 63.6353 110.379 64.0329 111.244C64.4306 112.091 64.6294 113.18 64.6294 114.511V121.851H61.5173L61.258 120.528H61.1543C60.601 121.012 60.0218 121.41 59.4167 121.721C58.8116 122.015 58.146 122.162 57.4198 122.162ZM58.6906 119.179C59.1228 119.179 59.5032 119.084 59.8317 118.894C60.1601 118.704 60.4886 118.445 60.8171 118.116V115.938C59.9181 116.059 59.2006 116.214 58.6646 116.404C58.146 116.595 57.7742 116.828 57.5495 117.105C57.342 117.364 57.2383 117.658 57.2383 117.986C57.2383 118.384 57.3679 118.687 57.6273 118.894C57.9039 119.084 58.2583 119.179 58.6906 119.179ZM67.1539 121.851V119.802L72.5481 111.97H67.7504V108.987H77.294V111.01L71.8998 118.868H77.4755V121.851H67.1539ZM87.2516 122.162C85.7993 122.162 84.468 121.842 83.2578 121.202C82.0648 120.545 81.1053 119.568 80.3791 118.272C79.653 116.975 79.2899 115.384 79.2899 113.5C79.2899 112.099 79.4974 110.855 79.9123 109.765C80.3445 108.659 80.9324 107.725 81.6758 106.965C82.4192 106.204 83.2664 105.625 84.2173 105.227C85.1855 104.829 86.2056 104.631 87.2775 104.631C88.3667 104.631 89.3436 104.847 90.208 105.279C91.0725 105.711 91.79 106.23 92.3605 106.835L90.3377 109.143C89.9228 108.745 89.4732 108.451 88.9891 108.261C88.505 108.054 87.9604 107.95 87.3553 107.95C86.6119 107.95 85.9203 108.175 85.2806 108.624C84.6582 109.057 84.1568 109.679 83.7764 110.492C83.3961 111.304 83.2059 112.264 83.2059 113.37C83.2059 114.529 83.3874 115.523 83.7505 116.353C84.1136 117.165 84.615 117.788 85.2547 118.22C85.9117 118.652 86.6637 118.868 87.5109 118.868C88.1679 118.868 88.7557 118.73 89.2744 118.453C89.7931 118.177 90.2513 117.848 90.6489 117.468L92.568 119.724C91.8419 120.537 91.0379 121.15 90.1562 121.565C89.2744 121.963 88.3062 122.162 87.2516 122.162ZM98.378 122.136C97.5135 122.136 96.822 121.963 96.3033 121.617C95.8019 121.254 95.4388 120.753 95.2141 120.113C94.9893 119.456 94.8769 118.695 94.8769 117.831V103.697H98.6892V117.986C98.6892 118.401 98.7583 118.687 98.8967 118.842C99.0523 118.981 99.2165 119.05 99.3894 119.05C99.4586 119.05 99.5191 119.05 99.5709 119.05C99.6401 119.032 99.7265 119.015 99.8303 118.998L100.297 121.825C100.09 121.911 99.8216 121.98 99.4931 122.032C99.1819 122.101 98.8102 122.136 98.378 122.136ZM107.821 122.162C106.732 122.162 105.712 121.902 104.761 121.384C103.81 120.848 103.032 120.078 102.427 119.076C101.839 118.056 101.545 116.837 101.545 115.419C101.545 114.001 101.839 112.791 102.427 111.788C103.032 110.768 103.81 109.999 104.761 109.48C105.712 108.944 106.732 108.676 107.821 108.676C108.893 108.676 109.905 108.944 110.856 109.48C111.806 109.999 112.576 110.768 113.164 111.788C113.769 112.791 114.071 114.001 114.071 115.419C114.071 116.837 113.769 118.056 113.164 119.076C112.576 120.078 111.806 120.848 110.856 121.384C109.905 121.902 108.893 122.162 107.821 122.162ZM107.821 119.076C108.34 119.076 108.772 118.929 109.118 118.635C109.481 118.341 109.749 117.917 109.922 117.364C110.095 116.811 110.181 116.162 110.181 115.419C110.181 114.676 110.095 114.027 109.922 113.474C109.749 112.921 109.481 112.497 109.118 112.203C108.772 111.909 108.34 111.762 107.821 111.762C107.285 111.762 106.844 111.909 106.499 112.203C106.153 112.497 105.894 112.921 105.721 113.474C105.548 114.027 105.461 114.676 105.461 115.419C105.461 116.162 105.548 116.811 105.721 117.364C105.894 117.917 106.153 118.341 106.499 118.635C106.844 118.929 107.285 119.076 107.821 119.076ZM120.547 122.162C119.146 122.162 118.126 121.704 117.487 120.787C116.864 119.854 116.553 118.583 116.553 116.975V108.987H120.365V116.482C120.365 117.416 120.495 118.056 120.754 118.401C121.014 118.747 121.42 118.92 121.973 118.92C122.44 118.92 122.846 118.808 123.192 118.583C123.538 118.358 123.892 117.995 124.255 117.494V108.987H128.068V121.851H124.955L124.67 120.061H124.592C124.056 120.701 123.469 121.211 122.829 121.591C122.189 121.972 121.428 122.162 120.547 122.162ZM136.013 122.162C134.422 122.162 133.143 121.565 132.174 120.372C131.223 119.162 130.748 117.511 130.748 115.419C130.748 114.019 130.999 112.817 131.5 111.814C132.019 110.811 132.684 110.042 133.497 109.506C134.327 108.953 135.191 108.676 136.09 108.676C136.799 108.676 137.396 108.797 137.88 109.039C138.364 109.281 138.822 109.61 139.254 110.025L139.099 108.054V103.671H142.911V121.851H139.799L139.54 120.58H139.436C138.986 121.029 138.459 121.41 137.854 121.721C137.249 122.015 136.635 122.162 136.013 122.162ZM136.998 119.05C137.413 119.05 137.793 118.963 138.139 118.79C138.485 118.618 138.805 118.315 139.099 117.883V112.618C138.77 112.307 138.424 112.091 138.061 111.97C137.698 111.849 137.335 111.788 136.972 111.788C136.557 111.788 136.177 111.918 135.831 112.177C135.485 112.437 135.2 112.834 134.975 113.37C134.768 113.889 134.664 114.555 134.664 115.367C134.664 116.629 134.871 117.563 135.286 118.168C135.701 118.756 136.272 119.05 136.998 119.05ZM151.48 121.851V108.987H162.995V121.851H159.183V111.97H155.293V121.851H151.48ZM171.896 122.162C170.807 122.162 169.787 121.902 168.836 121.384C167.885 120.848 167.107 120.078 166.502 119.076C165.914 118.056 165.62 116.837 165.62 115.419C165.62 114.001 165.914 112.791 166.502 111.788C167.107 110.768 167.885 109.999 168.836 109.48C169.787 108.944 170.807 108.676 171.896 108.676C172.968 108.676 173.979 108.944 174.93 109.48C175.881 109.999 176.651 110.768 177.238 111.788C177.844 112.791 178.146 114.001 178.146 115.419C178.146 116.837 177.844 118.056 177.238 119.076C176.651 120.078 175.881 120.848 174.93 121.384C173.979 121.902 172.968 122.162 171.896 122.162ZM171.896 119.076C172.415 119.076 172.847 118.929 173.193 118.635C173.556 118.341 173.824 117.917 173.997 117.364C174.17 116.811 174.256 116.162 174.256 115.419C174.256 114.676 174.17 114.027 173.997 113.474C173.824 112.921 173.556 112.497 173.193 112.203C172.847 111.909 172.415 111.762 171.896 111.762C171.36 111.762 170.919 111.909 170.573 112.203C170.228 112.497 169.968 112.921 169.795 113.474C169.623 114.027 169.536 114.676 169.536 115.419C169.536 116.162 169.623 116.811 169.795 117.364C169.968 117.917 170.228 118.341 170.573 118.635C170.919 118.929 171.36 119.076 171.896 119.076ZM180.757 122.136C180.463 122.136 180.195 122.11 179.953 122.058C179.711 122.023 179.469 121.954 179.227 121.851L179.85 118.427C179.953 118.445 180.057 118.471 180.161 118.505C180.265 118.522 180.377 118.531 180.498 118.531C180.844 118.531 181.138 118.393 181.38 118.116C181.639 117.822 181.812 117.329 181.898 116.638C182.071 115.376 182.218 114.105 182.339 112.826C182.478 111.546 182.625 110.267 182.78 108.987H192.272V121.851H188.46V111.97H185.788C185.685 112.903 185.572 113.854 185.451 114.823C185.348 115.791 185.218 116.75 185.062 117.701C184.855 119.136 184.397 120.234 183.688 120.995C182.979 121.755 182.002 122.136 180.757 122.136ZM197.05 126.882C196.67 126.882 196.332 126.856 196.039 126.804C195.762 126.752 195.494 126.674 195.235 126.571L195.909 123.77C196.099 123.822 196.255 123.847 196.376 123.847C196.514 123.865 196.644 123.873 196.765 123.873C197.404 123.873 197.897 123.709 198.243 123.381C198.606 123.069 198.865 122.672 199.021 122.188L199.203 121.513L194.249 108.987H198.087L199.929 114.511C200.119 115.099 200.292 115.696 200.447 116.301C200.603 116.906 200.767 117.528 200.94 118.168H201.044C201.182 117.563 201.32 116.958 201.459 116.353C201.614 115.73 201.77 115.116 201.926 114.511L203.482 108.987H207.138L202.678 121.98C202.263 123.052 201.813 123.951 201.329 124.677C200.862 125.404 200.283 125.948 199.592 126.311C198.917 126.692 198.07 126.882 197.05 126.882ZM216.228 121.851V117.468C215.882 117.554 215.553 117.615 215.242 117.649C214.931 117.667 214.507 117.675 213.971 117.675C212.951 117.675 212.044 117.511 211.248 117.183C210.47 116.854 209.848 116.327 209.381 115.601C208.932 114.857 208.707 113.889 208.707 112.696V108.987H212.519V112.696C212.519 113.353 212.692 113.854 213.038 114.2C213.401 114.529 213.989 114.693 214.801 114.693C215.078 114.693 215.329 114.676 215.553 114.641C215.778 114.606 216.003 114.572 216.228 114.537V108.987H220.04V121.851H216.228ZM223.406 121.851V108.987H227.089V112.566C227.089 113.223 227.054 113.949 226.985 114.745C226.916 115.523 226.838 116.335 226.752 117.183H226.855C227.063 116.733 227.305 116.249 227.582 115.73C227.875 115.194 228.118 114.736 228.308 114.356L231.446 108.987H235.154V121.851H231.472V118.272C231.472 117.615 231.506 116.897 231.575 116.119C231.645 115.341 231.722 114.52 231.809 113.656H231.705C231.498 114.105 231.256 114.598 230.979 115.134C230.72 115.652 230.486 116.102 230.279 116.482L227.115 121.851H223.406ZM238.526 122.136C238.232 122.136 237.964 122.11 237.722 122.058C237.48 122.023 237.238 121.954 236.996 121.851L237.618 118.427C237.722 118.445 237.826 118.471 237.929 118.505C238.033 118.522 238.145 118.531 238.267 118.531C238.612 118.531 238.906 118.393 239.148 118.116C239.408 117.822 239.58 117.329 239.667 116.638C239.84 115.376 239.987 114.105 240.108 112.826C240.246 111.546 240.393 110.267 240.549 108.987H250.04V121.851H246.228V111.97H243.557C243.453 112.903 243.341 113.854 243.22 114.823C243.116 115.791 242.986 116.75 242.831 117.701C242.623 119.136 242.165 120.234 241.456 120.995C240.748 121.755 239.771 122.136 238.526 122.136ZM60.3261 148.162C59.1159 148.162 58.018 147.894 57.0325 147.358C56.0643 146.822 55.295 146.053 54.7244 145.05C54.1712 144.047 53.8945 142.837 53.8945 141.419C53.8945 140.001 54.2057 138.791 54.8282 137.788C55.4506 136.785 56.2718 136.016 57.2919 135.48C58.3119 134.944 59.4098 134.676 60.5855 134.676C61.3808 134.676 62.0896 134.806 62.712 135.065C63.3517 135.307 63.8963 135.636 64.3459 136.051L62.5564 138.411C62.3317 138.221 62.0723 138.065 61.7784 137.944C61.5018 137.823 61.1819 137.762 60.8189 137.762C60.2137 137.762 59.6864 137.909 59.2369 138.203C58.7874 138.497 58.433 138.921 58.1736 139.474C57.9143 140.027 57.7846 140.676 57.7846 141.419C57.7846 142.162 57.9143 142.811 58.1736 143.364C58.433 143.917 58.7787 144.341 59.211 144.635C59.6605 144.929 60.1619 145.076 60.7151 145.076C61.1474 145.076 61.5537 144.998 61.934 144.842C62.3144 144.687 62.6688 144.488 62.9973 144.246L64.5015 146.58C63.9655 147.064 63.3344 147.453 62.6083 147.747C61.8821 148.023 61.1214 148.162 60.3261 148.162ZM71.8006 148.162C70.5731 148.162 69.4666 147.894 68.4811 147.358C67.4956 146.822 66.7176 146.053 66.147 145.05C65.5765 144.047 65.2912 142.837 65.2912 141.419C65.2912 140.019 65.5765 138.817 66.147 137.814C66.7349 136.811 67.4956 136.042 68.4292 135.506C69.3628 134.953 70.3397 134.676 71.3597 134.676C72.5873 134.676 73.6073 134.953 74.4199 135.506C75.2325 136.042 75.8376 136.777 76.2353 137.71C76.6329 138.644 76.8318 139.69 76.8318 140.848C76.8318 141.177 76.8145 141.505 76.7799 141.834C76.7453 142.145 76.7107 142.396 76.6762 142.586H68.2477L68.1958 139.941H73.5641C73.5641 139.266 73.3999 138.713 73.0714 138.281C72.7429 137.831 72.1983 137.607 71.4375 137.607C71.0226 137.607 70.6163 137.719 70.2186 137.944C69.821 138.169 69.4925 138.558 69.2332 139.111C68.9738 139.664 68.8528 140.434 68.8701 141.419C68.8874 142.387 69.0603 143.148 69.3888 143.701C69.7345 144.254 70.1668 144.652 70.6855 144.894C71.2041 145.119 71.7487 145.231 72.3193 145.231C72.8207 145.231 73.2961 145.162 73.7456 145.024C74.2125 144.868 74.6706 144.661 75.1201 144.401L76.365 146.735C75.7253 147.185 74.9991 147.539 74.1865 147.799C73.3739 148.041 72.5786 148.162 71.8006 148.162ZM79.4661 152.622V134.987H82.5781L82.8375 136.258H82.9412C83.4426 135.791 84.0131 135.411 84.6528 135.117C85.2925 134.823 85.9409 134.676 86.5979 134.676C87.6352 134.676 88.5256 134.944 89.269 135.48C90.0298 136.016 90.609 136.777 91.0066 137.762C91.4216 138.748 91.629 139.898 91.629 141.212C91.629 142.681 91.3697 143.935 90.851 144.972C90.3323 146.009 89.6581 146.805 88.8282 147.358C88.0156 147.894 87.1425 148.162 86.2089 148.162C85.6729 148.162 85.1369 148.049 84.601 147.825C84.0823 147.583 83.5982 147.245 83.1487 146.813L83.2783 148.862V152.622H79.4661ZM85.3271 145.05C85.7593 145.05 86.157 144.92 86.5201 144.661C86.9004 144.401 87.1943 143.995 87.4018 143.442C87.6093 142.871 87.713 142.145 87.713 141.263C87.713 140.485 87.6266 139.846 87.4537 139.344C87.2981 138.826 87.056 138.437 86.7275 138.177C86.399 137.918 85.9841 137.788 85.4827 137.788C85.1024 137.788 84.7306 137.883 84.3676 138.074C84.0218 138.246 83.6587 138.54 83.2783 138.955V144.22C83.6241 144.514 83.9699 144.73 84.3157 144.868C84.6788 144.989 85.0159 145.05 85.3271 145.05ZM96.4235 147.851V137.97H92.6372V134.987H104.048V137.97H100.236V147.851H96.4235ZM106.413 147.851V134.987H110.096V138.566C110.096 139.223 110.061 139.949 109.992 140.745C109.923 141.523 109.845 142.335 109.758 143.183H109.862C110.07 142.733 110.312 142.249 110.588 141.73C110.882 141.194 111.124 140.736 111.314 140.356L114.452 134.987H118.161V147.851H114.478V144.272C114.478 143.615 114.513 142.897 114.582 142.119C114.651 141.341 114.729 140.52 114.815 139.656H114.712C114.504 140.105 114.262 140.598 113.986 141.134C113.726 141.652 113.493 142.102 113.285 142.482L110.121 147.851H106.413ZM128.094 152.622V149.329L128.197 147.384C127.869 147.591 127.497 147.773 127.082 147.928C126.667 148.084 126.244 148.162 125.812 148.162C124.325 148.162 123.123 147.565 122.207 146.372C121.308 145.162 120.858 143.511 120.858 141.419C120.858 140.019 121.092 138.817 121.558 137.814C122.043 136.811 122.665 136.042 123.426 135.506C124.186 134.953 124.982 134.676 125.812 134.676C126.33 134.676 126.78 134.745 127.16 134.884C127.541 135.005 127.886 135.169 128.197 135.376L128.094 133.509V129.671H131.802V133.509L131.673 135.48C132.053 135.273 132.468 135.091 132.917 134.936C133.384 134.763 133.851 134.676 134.318 134.676C135.269 134.676 136.099 134.944 136.808 135.48C137.516 136.016 138.061 136.777 138.441 137.762C138.839 138.748 139.038 139.898 139.038 141.212C139.038 142.681 138.796 143.935 138.312 144.972C137.845 146.009 137.222 146.805 136.444 147.358C135.684 147.894 134.862 148.162 133.981 148.162C133.566 148.162 133.168 148.101 132.788 147.98C132.407 147.859 132.036 147.686 131.673 147.462L131.802 149.329V152.622H128.094ZM126.823 145.05C127.1 145.05 127.342 145.007 127.549 144.92C127.774 144.834 127.99 144.687 128.197 144.479V138.281C127.99 138.091 127.748 137.961 127.471 137.892C127.212 137.823 126.961 137.788 126.719 137.788C126.373 137.788 126.045 137.918 125.734 138.177C125.44 138.437 125.206 138.834 125.034 139.37C124.861 139.889 124.774 140.555 124.774 141.367C124.774 142.629 124.947 143.563 125.293 144.168C125.656 144.756 126.166 145.05 126.823 145.05ZM133.099 145.05C133.479 145.05 133.825 144.92 134.136 144.661C134.448 144.401 134.69 143.995 134.862 143.442C135.035 142.871 135.122 142.145 135.122 141.263C135.122 140.485 135.044 139.846 134.888 139.344C134.75 138.826 134.534 138.437 134.24 138.177C133.963 137.918 133.609 137.788 133.177 137.788C132.935 137.788 132.684 137.831 132.425 137.918C132.183 137.987 131.932 138.125 131.673 138.333V144.531C131.915 144.739 132.157 144.877 132.399 144.946C132.641 145.015 132.874 145.05 133.099 145.05ZM141.743 147.851V134.987H145.425V138.566C145.425 139.223 145.391 139.949 145.322 140.745C145.252 141.523 145.175 142.335 145.088 143.183H145.192C145.399 142.733 145.641 142.249 145.918 141.73C146.212 141.194 146.454 140.736 146.644 140.356L149.782 134.987H153.491V147.851H149.808V144.272C149.808 143.615 149.843 142.897 149.912 142.119C149.981 141.341 150.059 140.52 150.145 139.656H150.041C149.834 140.105 149.592 140.598 149.315 141.134C149.056 141.652 148.823 142.102 148.615 142.482L145.451 147.851H141.743ZM156.862 147.851V134.987H160.623V139.733H162.334L163.475 137.373C163.838 136.647 164.219 136.094 164.616 135.714C165.014 135.316 165.455 135.048 165.939 134.91C166.423 134.771 166.968 134.702 167.573 134.702C167.971 134.702 168.316 134.763 168.61 134.884L168.014 138.385C167.945 138.35 167.867 138.333 167.78 138.333C167.694 138.316 167.607 138.307 167.521 138.307C167.21 138.307 166.925 138.385 166.665 138.54C166.406 138.679 166.147 139.024 165.887 139.578L165.213 141.108L169.233 147.851H165.109L162.438 142.716H160.623V147.851H156.862ZM174.059 148.162C173.281 148.162 172.598 147.989 172.01 147.643C171.439 147.297 170.998 146.831 170.687 146.243C170.376 145.655 170.22 144.998 170.22 144.272C170.22 142.889 170.791 141.825 171.932 141.082C173.073 140.321 174.914 139.811 177.456 139.552C177.439 139.171 177.352 138.852 177.197 138.592C177.058 138.316 176.842 138.108 176.548 137.97C176.254 137.814 175.883 137.736 175.433 137.736C174.897 137.736 174.353 137.831 173.799 138.022C173.246 138.212 172.65 138.488 172.01 138.852L170.661 136.362C171.215 136.016 171.785 135.722 172.373 135.48C172.961 135.221 173.566 135.022 174.188 134.884C174.828 134.745 175.485 134.676 176.159 134.676C177.266 134.676 178.191 134.892 178.934 135.325C179.695 135.74 180.274 136.379 180.672 137.244C181.069 138.091 181.268 139.18 181.268 140.511V147.851H178.156L177.897 146.528H177.793C177.24 147.012 176.661 147.41 176.055 147.721C175.45 148.015 174.785 148.162 174.059 148.162ZM175.329 145.179C175.762 145.179 176.142 145.084 176.47 144.894C176.799 144.704 177.127 144.445 177.456 144.116V141.938C176.557 142.059 175.839 142.214 175.303 142.404C174.785 142.595 174.413 142.828 174.188 143.105C173.981 143.364 173.877 143.658 173.877 143.986C173.877 144.384 174.007 144.687 174.266 144.894C174.543 145.084 174.897 145.179 175.329 145.179ZM194.296 152.311V147.851H184.493V134.987H188.305V144.868H192.091V134.987H195.904V144.868H197.927V147.358L197.564 152.311H194.296ZM199.942 147.851V134.987H203.624V138.566C203.624 139.223 203.59 139.949 203.521 140.745C203.451 141.523 203.374 142.335 203.287 143.183H203.391C203.598 142.733 203.84 142.249 204.117 141.73C204.411 141.194 204.653 140.736 204.843 140.356L207.981 134.987H211.69V147.851H208.007V144.272C208.007 143.615 208.042 142.897 208.111 142.119C208.18 141.341 208.258 140.52 208.344 139.656H208.241C208.033 140.105 207.791 140.598 207.514 141.134C207.255 141.652 207.022 142.102 206.814 142.482L203.65 147.851H199.942ZM215.061 147.851V134.987H218.874V139.656H221.441V142.975H218.874V147.851H215.061ZM226.706 148.162C225.547 148.162 224.519 147.894 223.619 147.358C222.72 146.822 222.003 146.053 221.467 145.05C220.948 144.03 220.689 142.819 220.689 141.419C220.689 140.019 220.948 138.817 221.467 137.814C222.003 136.811 222.72 136.042 223.619 135.506C224.519 134.953 225.547 134.676 226.706 134.676C227.778 134.676 228.754 134.944 229.636 135.48C230.518 135.999 231.227 136.768 231.763 137.788C232.299 138.791 232.567 140.001 232.567 141.419C232.567 142.837 232.299 144.056 231.763 145.076C231.227 146.078 230.518 146.848 229.636 147.384C228.754 147.902 227.778 148.162 226.706 148.162ZM226.472 145.076C226.974 145.076 227.38 144.929 227.691 144.635C228.02 144.341 228.262 143.917 228.417 143.364C228.573 142.811 228.651 142.162 228.651 141.419C228.651 140.676 228.573 140.027 228.417 139.474C228.262 138.921 228.02 138.497 227.691 138.203C227.38 137.909 226.974 137.762 226.472 137.762C226.023 137.762 225.625 137.909 225.279 138.203C224.951 138.497 224.691 138.921 224.501 139.474C224.328 140.027 224.242 140.676 224.242 141.419C224.242 142.162 224.328 142.811 224.501 143.364C224.691 143.917 224.951 144.341 225.279 144.635C225.625 144.929 226.023 145.076 226.472 145.076Z" fill="white"/>
<path d="M74.0081 211.196V183.484H83.5287C85.5688 183.484 87.4106 183.767 89.0541 184.334C90.7259 184.872 92.0576 185.793 93.0493 187.097C94.0411 188.4 94.5369 190.171 94.5369 192.41C94.5369 194.563 94.0411 196.334 93.0493 197.722C92.0576 199.111 90.74 200.145 89.0966 200.825C87.4531 201.477 85.6538 201.803 83.6987 201.803H80.256V211.196H74.0081ZM80.256 196.83H83.3162C85.0446 196.83 86.3197 196.447 87.1414 195.682C87.9915 194.917 88.4165 193.826 88.4165 192.41C88.4165 190.936 87.9632 189.916 87.0564 189.349C86.1497 188.754 84.8463 188.457 83.1462 188.457H80.256V196.83ZM111.058 211.706C108.678 211.706 106.496 211.182 104.512 210.133C102.557 209.056 100.985 207.456 99.7947 205.33C98.6046 203.205 98.0096 200.598 98.0096 197.51C98.0096 195.215 98.3496 193.175 99.0296 191.389C99.738 189.576 100.701 188.046 101.92 186.799C103.138 185.552 104.527 184.603 106.085 183.951C107.672 183.3 109.344 182.974 111.1 182.974C112.886 182.974 114.486 183.328 115.903 184.036C117.32 184.745 118.496 185.595 119.431 186.587L116.116 190.369C115.436 189.718 114.699 189.236 113.906 188.924C113.112 188.584 112.22 188.414 111.228 188.414C110.01 188.414 108.876 188.783 107.828 189.519C106.808 190.228 105.986 191.248 105.363 192.58C104.739 193.911 104.427 195.484 104.427 197.297C104.427 199.196 104.725 200.825 105.32 202.185C105.915 203.517 106.737 204.537 107.785 205.245C108.862 205.954 110.095 206.308 111.483 206.308C112.56 206.308 113.523 206.081 114.373 205.628C115.223 205.175 115.974 204.636 116.626 204.013L119.771 207.711C118.581 209.042 117.263 210.048 115.818 210.728C114.373 211.38 112.786 211.706 111.058 211.706ZM124.065 211.196V183.484H130.313V211.196H124.065ZM145.358 211.196V183.484H153.179C156.012 183.484 158.463 183.966 160.532 184.929C162.628 185.892 164.243 187.394 165.377 189.434C166.51 191.446 167.077 194.039 167.077 197.212C167.077 200.386 166.51 203.007 165.377 205.075C164.243 207.144 162.657 208.688 160.617 209.708C158.605 210.7 156.253 211.196 153.561 211.196H145.358ZM151.606 206.138H152.796C154.383 206.138 155.757 205.855 156.919 205.288C158.109 204.721 159.03 203.786 159.682 202.483C160.333 201.179 160.659 199.423 160.659 197.212C160.659 195.002 160.333 193.274 159.682 192.027C159.03 190.752 158.109 189.859 156.919 189.349C155.757 188.811 154.383 188.542 152.796 188.542H151.606V206.138ZM180.795 211.706C178.954 211.706 177.14 211.38 175.355 210.728C173.57 210.048 171.969 209.028 170.552 207.668L173.867 203.588C174.859 204.438 175.978 205.104 177.225 205.585C178.5 206.067 179.747 206.308 180.965 206.308C182.269 206.308 183.232 206.067 183.856 205.585C184.507 205.104 184.833 204.452 184.833 203.63C184.833 203.035 184.663 202.568 184.323 202.228C184.012 201.859 183.558 201.533 182.963 201.25C182.368 200.967 181.66 200.655 180.838 200.315L177.225 198.827C176.29 198.402 175.383 197.864 174.505 197.212C173.655 196.532 172.961 195.711 172.422 194.747C171.912 193.755 171.657 192.58 171.657 191.219C171.657 189.689 172.068 188.315 172.89 187.097C173.74 185.85 174.902 184.858 176.375 184.121C177.877 183.356 179.591 182.974 181.518 182.974C183.19 182.974 184.805 183.271 186.363 183.866C187.922 184.462 189.282 185.326 190.444 186.459L187.128 190.497C186.222 189.817 185.287 189.293 184.323 188.924C183.388 188.556 182.453 188.372 181.518 188.372C180.441 188.372 179.577 188.598 178.925 189.052C178.302 189.477 177.99 190.086 177.99 190.879C177.99 191.418 178.174 191.885 178.543 192.282C178.911 192.65 179.421 192.976 180.073 193.26C180.725 193.515 181.433 193.812 182.198 194.152L185.768 195.597C186.902 196.051 187.865 196.617 188.658 197.297C189.48 197.977 190.118 198.799 190.571 199.763C191.024 200.698 191.251 201.817 191.251 203.12C191.251 204.65 190.84 206.067 190.019 207.371C189.197 208.674 188.007 209.722 186.448 210.516C184.89 211.309 183.006 211.706 180.795 211.706ZM203.666 211.706C201.824 211.706 200.01 211.38 198.225 210.728C196.44 210.048 194.839 209.028 193.422 207.668L196.738 203.588C197.729 204.438 198.849 205.104 200.095 205.585C201.37 206.067 202.617 206.308 203.836 206.308C205.139 206.308 206.102 206.067 206.726 205.585C207.378 205.104 207.703 204.452 207.703 203.63C207.703 203.035 207.533 202.568 207.193 202.228C206.882 201.859 206.428 201.533 205.833 201.25C205.238 200.967 204.53 200.655 203.708 200.315L200.095 198.827C199.16 198.402 198.254 197.864 197.375 197.212C196.525 196.532 195.831 195.711 195.293 194.747C194.783 193.755 194.528 192.58 194.528 191.219C194.528 189.689 194.938 188.315 195.76 187.097C196.61 185.85 197.772 184.858 199.245 184.121C200.747 183.356 202.461 182.974 204.388 182.974C206.06 182.974 207.675 183.271 209.234 183.866C210.792 184.462 212.152 185.326 213.314 186.459L209.999 190.497C209.092 189.817 208.157 189.293 207.193 188.924C206.258 188.556 205.323 188.372 204.388 188.372C203.311 188.372 202.447 188.598 201.796 189.052C201.172 189.477 200.86 190.086 200.86 190.879C200.86 191.418 201.045 191.885 201.413 192.282C201.781 192.65 202.291 192.976 202.943 193.26C203.595 193.515 204.303 193.812 205.068 194.152L208.638 195.597C209.772 196.051 210.735 196.617 211.529 197.297C212.35 197.977 212.988 198.799 213.441 199.763C213.895 200.698 214.121 201.817 214.121 203.12C214.121 204.65 213.71 206.067 212.889 207.371C212.067 208.674 210.877 209.722 209.319 210.516C207.76 211.309 205.876 211.706 203.666 211.706Z" fill="white"/>
</svg>
