<svg width="29" height="29" viewBox="0 0 29 29" fill="none" xmlns="http://www.w3.org/2000/svg">
<path d="M8.7602 4.1637C9.7843 3.98921 10.8345 4.04677 11.8334 4.33214C12.8323 4.61751 13.7544 5.12341 14.5318 5.81256L14.5746 5.85074L14.6139 5.81603C15.3559 5.16493 16.2281 4.67952 17.1725 4.3922C18.1168 4.10488 19.1116 4.02225 20.0905 4.14981L20.3751 4.19147C21.6089 4.4045 22.7622 4.94723 23.7127 5.76219C24.6632 6.57714 25.3757 7.63399 25.7746 8.82081C26.1736 10.0076 26.2441 11.2802 25.9788 12.5039C25.7135 13.7275 25.1222 14.8566 24.2676 15.7717L24.0593 15.9857L24.0038 16.0332L15.3834 24.5714C15.1845 24.7683 14.9209 24.8864 14.6416 24.9038C14.3622 24.9213 14.086 24.8368 13.8641 24.6662L13.7554 24.5714L5.08527 15.9834C4.16679 15.0897 3.51359 13.9593 3.198 12.7172C2.88241 11.4752 2.91676 10.1701 3.29723 8.94633C3.67771 7.72261 4.38946 6.62807 5.35367 5.78394C6.31788 4.93981 7.49691 4.37903 8.7602 4.1637Z" fill="#CD2020"/>
</svg>
