<svg width="29" height="29" viewBox="0 0 29 29" fill="none" xmlns="http://www.w3.org/2000/svg">
<path d="M24.4974 4.3316C24.3803 4.21503 24.2323 4.13432 24.0709 4.09896C23.9095 4.0636 23.7413 4.07506 23.5862 4.132L4.49413 11.0746C4.32948 11.137 4.18772 11.2481 4.08769 11.393C3.98766 11.5379 3.93408 11.7099 3.93408 11.886C3.93408 12.0621 3.98766 12.234 4.08769 12.3789C4.18772 12.5239 4.32948 12.6349 4.49413 12.6974L12.8252 16.0298L16.1576 24.3609C16.2203 24.5183 16.3276 24.654 16.4664 24.7511C16.6051 24.8483 16.7693 24.9027 16.9387 24.9076C17.1141 24.904 17.2842 24.8474 17.4267 24.7451C17.5693 24.6429 17.6775 24.4998 17.7371 24.3349L24.6796 5.24281C24.7388 5.08927 24.753 4.92209 24.7208 4.76075C24.6885 4.59942 24.611 4.45058 24.4974 4.3316ZM16.9387 21.6099L14.5175 15.5352L18.6743 11.3783L17.4507 10.1547L13.2591 14.3462L7.21909 11.8903L22.432 6.39701L16.9387 21.6099Z" fill="black"/>
</svg>
