<svg width="28" height="29" viewBox="0 0 28 29" fill="none" xmlns="http://www.w3.org/2000/svg">
<path d="M24.4862 16.9616V23.0405C24.4862 23.5011 24.3033 23.9429 23.9775 24.2686C23.6518 24.5943 23.2101 24.7773 22.7494 24.7773H5.38126C4.92062 24.7773 4.47886 24.5943 4.15314 24.2686C3.82743 23.9429 3.64444 23.5011 3.64444 23.0405V16.9616C3.64444 16.7313 3.73593 16.5104 3.89879 16.3476C4.06165 16.1847 4.28253 16.0932 4.51285 16.0932C4.74316 16.0932 4.96405 16.1847 5.12691 16.3476C5.28976 16.5104 5.38126 16.7313 5.38126 16.9616V23.0405H22.7494V16.9616C22.7494 16.7313 22.8409 16.5104 23.0038 16.3476C23.1666 16.1847 23.3875 16.0932 23.6178 16.0932C23.8481 16.0932 24.069 16.1847 24.2319 16.3476C24.3947 16.5104 24.4862 16.7313 24.4862 16.9616ZM10.3377 9.76035L13.1969 6.90003V16.9616C13.1969 17.1919 13.2884 17.4128 13.4513 17.5757C13.6141 17.7385 13.835 17.83 14.0653 17.83C14.2957 17.83 14.5165 17.7385 14.6794 17.5757C14.8423 17.4128 14.9337 17.1919 14.9337 16.9616V6.90003L17.793 9.76035C17.9559 9.92329 18.1769 10.0148 18.4074 10.0148C18.6378 10.0148 18.8588 9.92329 19.0218 9.76035C19.1847 9.5974 19.2763 9.37639 19.2763 9.14595C19.2763 8.9155 19.1847 8.6945 19.0218 8.53155L14.6797 4.18951C14.5991 4.10877 14.5033 4.04471 14.3979 4.00101C14.2925 3.95731 14.1795 3.93481 14.0653 3.93481C13.9512 3.93481 13.8382 3.95731 13.7328 4.00101C13.6274 4.04471 13.5316 4.10877 13.4509 4.18951L9.1089 8.53155C8.94595 8.6945 8.85441 8.9155 8.85441 9.14595C8.85441 9.37639 8.94595 9.5974 9.1089 9.76035C9.27185 9.92329 9.49285 10.0148 9.7233 10.0148C9.95374 10.0148 10.1747 9.92329 10.3377 9.76035Z" fill="black"/>
</svg>
