<svg width="29" height="29" viewBox="0 0 29 29" fill="none" xmlns="http://www.w3.org/2000/svg">
<path d="M18.8025 13.3366C19.7611 13.3366 20.5381 12.5595 20.5381 11.6009C20.5381 10.6423 19.7611 9.86523 18.8025 9.86523C17.8439 9.86523 17.0668 10.6423 17.0668 11.6009C17.0668 12.5595 17.8439 13.3366 18.8025 13.3366Z" fill="#969696"/>
<path d="M10.7022 13.3366C11.6608 13.3366 12.4379 12.5595 12.4379 11.6009C12.4379 10.6423 11.6608 9.86523 10.7022 9.86523C9.74363 9.86523 8.96655 10.6423 8.96655 11.6009C8.96655 12.5595 9.74363 13.3366 10.7022 13.3366Z" fill="#969696"/>
<path d="M14.7521 21.4365C17.3903 21.4365 19.6351 19.5157 20.5376 16.8081H8.96655C9.86909 19.5157 12.1139 21.4365 14.7521 21.4365Z" fill="#969696"/>
<path d="M14.7406 2.92334C8.35341 2.92334 3.18115 8.10717 3.18115 14.4944C3.18115 20.8816 8.35341 26.0654 14.7406 26.0654C21.1394 26.0654 26.3233 20.8816 26.3233 14.4944C26.3233 8.10717 21.1394 2.92334 14.7406 2.92334ZM14.7522 23.7512C9.6378 23.7512 5.49536 19.6088 5.49536 14.4944C5.49536 9.37999 9.6378 5.23755 14.7522 5.23755C19.8666 5.23755 24.009 9.37999 24.009 14.4944C24.009 19.6088 19.8666 23.7512 14.7522 23.7512Z" fill="#969696"/>
</svg>
