<svg xmlns="http://www.w3.org/2000/svg" width="56.0" height="59.0" viewBox="0.0 0.0 56.0 59.0" fill="none">
<g filter="url(#filter0_d_8_73)">
<path d="M47.1611 50.7161H22.9715C21.0709 50.7161 19.5159 49.1611 19.5159 47.2604V40.3491H22.9715V47.2604H47.1611V23.0709H40.2498V19.6152H47.1611C49.0617 19.6152 50.6168 21.1703 50.6168 23.0709V47.2604C50.6168 49.1611 49.0617 50.7161 47.1611 50.7161Z" fill="#14733A" />
<path d="M33.3385 36.8935H22.9715C21.0709 36.8935 19.5159 35.3385 19.5159 33.4378V23.0709C19.5159 21.1703 21.0709 19.6152 22.9715 19.6152H33.3385C35.2391 19.6152 36.7942 21.1703 36.7942 23.0709V33.4378C36.7942 35.3385 35.2391 36.8935 33.3385 36.8935ZM22.9715 23.0709V33.4378H33.3385V23.0709H22.9715Z" fill="#14733A" />
<path d="M9.1461 5.79199H33.3357C35.2363 5.79199 36.7913 7.34704 36.7913 9.24764V16.1589H33.3357V9.24764H9.1461V33.4372H16.0574V36.8929H9.1461C7.24549 36.8929 5.69044 35.3378 5.69044 33.4372V9.24764C5.69044 7.34704 7.24549 5.79199 9.1461 5.79199Z" fill="#14733A" />
</g>
<defs>
<filter id="filter0_d_8_73" x="-3.49023" y="0.609375" width="63.2904" height="63.2905" filterUnits="userSpaceOnUse" color-interpolation-filters="sRGB">
<feFlood flood-opacity="0" result="BackgroundImageFix" />
<feColorMatrix in="SourceAlpha" type="matrix" values="0 0 0 0 0 0 0 0 0 0 0 0 0 0 0 0 0 0 127 0" result="hardAlpha" />
<feOffset dy="4" />
<feGaussianBlur stdDeviation="2" />
<feComposite in2="hardAlpha" operator="out" />
<feColorMatrix type="matrix" values="0 0 0 0 0 0 0 0 0 0 0 0 0 0 0 0 0 0 0.25 0" />
<feBlend mode="normal" in2="BackgroundImageFix" result="effect1_dropShadow_8_73" />
<feBlend mode="normal" in="SourceGraphic" in2="effect1_dropShadow_8_73" result="shape" />
</filter>
</defs>
</svg>