<svg xmlns="http://www.w3.org/2000/svg" width="33.0" height="32.0" viewBox="0.0 0.0 33.0 32.0" fill="none">
<rect x="0.939453" y="0.278931" width="31.2025" height="31.4259" rx="6.10525" fill="#143773" />
<path d="M25.2684 26.4649H13.9901C13.1039 26.4649 12.3789 25.7398 12.3789 24.8537V21.6313H13.9901V24.8537H25.2684V13.5754H22.046V11.9642H25.2684C26.1545 11.9642 26.8796 12.6893 26.8796 13.5754V24.8537C26.8796 25.7398 26.1545 26.4649 25.2684 26.4649Z" fill="white" />
<path d="M18.8236 20.0201H13.9901C13.1039 20.0201 12.3789 19.2951 12.3789 18.409V13.5754C12.3789 12.6893 13.1039 11.9642 13.9901 11.9642H18.8236C19.7098 11.9642 20.4348 12.6893 20.4348 13.5754V18.409C20.4348 19.2951 19.7098 20.0201 18.8236 20.0201ZM13.9901 13.5754V18.409H18.8236V13.5754H13.9901Z" fill="white" />
<path d="M7.54673 5.51892H18.825C19.7112 5.51892 20.4362 6.24395 20.4362 7.1301V10.3525H18.825V7.1301H7.54673V18.4084H10.7691V20.0196H7.54673C6.66058 20.0196 5.93555 19.2945 5.93555 18.4084V7.1301C5.93555 6.24395 6.66058 5.51892 7.54673 5.51892Z" fill="white" />
</svg>