<svg xmlns="http://www.w3.org/2000/svg" width="15.0" height="15.0" viewBox="0.0 0.0 15.0 15.0" fill="none">
<path d="M7.37891 7.64917C7.70654 7.64917 7.98712 7.53241 8.22064 7.2989C8.45415 7.06538 8.57071 6.785 8.57031 6.45777C8.57031 6.13013 8.45356 5.84955 8.22004 5.61604C7.98652 5.38252 7.70615 5.26596 7.37891 5.26636C7.05127 5.26636 6.77069 5.38312 6.53718 5.61663C6.30366 5.85015 6.1871 6.13053 6.1875 6.45777C6.1875 6.7854 6.30426 7.06598 6.53777 7.29949C6.77129 7.53301 7.05167 7.64957 7.37891 7.64917ZM7.37891 12.0276C8.59017 10.9156 9.48869 9.9053 10.0745 8.99665C10.6602 8.08801 10.9531 7.28142 10.9531 6.57691C10.9531 5.49471 10.608 4.6087 9.91779 3.91888C9.22757 3.22905 8.38128 2.88394 7.37891 2.88355C6.37614 2.88355 5.52965 3.22866 4.83942 3.91888C4.1492 4.6091 3.80429 5.49511 3.80469 6.57691C3.80469 7.28182 4.09758 8.0886 4.68335 8.99725C5.26912 9.90589 6.16764 10.916 7.37891 12.0276ZM7.37891 13.3828C7.29948 13.3828 7.22005 13.3679 7.14063 13.3381C7.0612 13.3084 6.9917 13.2686 6.93213 13.219C5.48259 11.9382 4.40039 10.7492 3.68555 9.65193C2.9707 8.55464 2.61328 7.52963 2.61328 6.57691C2.61328 5.08765 3.09243 3.90121 4.05071 3.01758C5.009 2.13395 6.1184 1.69214 7.37891 1.69214C8.63981 1.69214 9.74941 2.13395 10.7077 3.01758C11.666 3.90121 12.1449 5.08765 12.1445 6.57691C12.1445 7.53003 11.7871 8.55524 11.0723 9.65252C10.3574 10.7498 9.27523 11.9386 7.82568 13.219C7.76611 13.2686 7.69662 13.3084 7.61719 13.3381C7.53776 13.3679 7.45833 13.3828 7.37891 13.3828Z" fill="#3E5685" />
</svg>