<svg width="56" height="56" viewBox="0 0 56 56" fill="none" xmlns="http://www.w3.org/2000/svg">
<path d="M47.1612 50.2435H22.9716C21.0709 50.2435 19.5159 48.6885 19.5159 46.7878V39.8765H22.9716V46.7878H47.1612V22.5982H40.2498V19.1426H47.1612C49.0618 19.1426 50.6168 20.6976 50.6168 22.5982V46.7878C50.6168 48.6885 49.0618 50.2435 47.1612 50.2435Z" fill="#14733A"/>
<path d="M35.0684 29.5092C34.2045 29.5092 33.5133 29.6819 32.8222 30.0275L25.9109 23.1162C26.2564 22.4251 26.4292 21.7339 26.4292 20.87C26.4292 17.9327 24.183 15.6865 21.2457 15.6865C18.3084 15.6865 16.0622 17.9327 16.0622 20.87C16.0622 23.8073 18.3084 26.0535 21.2457 26.0535C22.1097 26.0535 22.8008 25.8807 23.4919 25.5351L30.4032 32.4465C30.0577 33.1376 29.8849 33.8287 29.8849 34.6926C29.8849 37.63 32.1311 39.8761 35.0684 39.8761C38.0057 39.8761 40.2519 37.63 40.2519 34.6926C40.2519 31.7553 38.0057 29.5092 35.0684 29.5092ZM19.5179 20.87C19.5179 19.8333 20.209 19.1422 21.2457 19.1422C22.2824 19.1422 22.9736 19.8333 22.9736 20.87C22.9736 21.9067 22.2824 22.5978 21.2457 22.5978C20.209 22.5978 19.5179 21.9067 19.5179 20.87ZM35.0684 36.4205C34.0317 36.4205 33.3405 35.7293 33.3405 34.6926C33.3405 33.6559 34.0317 32.9648 35.0684 32.9648C36.1051 32.9648 36.7962 33.6559 36.7962 34.6926C36.7962 35.7293 36.1051 36.4205 35.0684 36.4205Z" fill="#14733A"/>
<path d="M9.14792 5.31934H33.3375C35.2381 5.31934 36.7932 6.87438 36.7932 8.77499V15.6863H33.3375V8.77499H9.14792V32.9646H16.0592V36.4203H9.14792C7.24731 36.4203 5.69226 34.8652 5.69226 32.9646V8.77499C5.69226 6.87438 7.24731 5.31934 9.14792 5.31934Z" fill="#14733A"/>
</svg>
