<svg width="56" height="56" viewBox="0 0 56 56" fill="none" xmlns="http://www.w3.org/2000/svg">
<path d="M33.4927 39.8765H40.4041V46.7879H33.4927V39.8765ZM45.5875 39.8765H52.4989V46.7879H45.5875V39.8765ZM33.4927 27.7817H40.4041V34.6931H33.4927V27.7817ZM45.5875 27.7817H52.4989V34.6931H45.5875V27.7817Z" fill="#14733A"/>
<path d="M28.3073 7.04785C20.8777 7.04785 14.6575 12.2313 13.1024 19.3154C7.91896 20.3521 4.11774 25.0173 4.11774 30.3735C4.11774 36.5937 9.12844 41.6044 15.3486 41.6044H28.3073V38.1488H15.3486C11.0291 38.1488 7.5734 34.6931 7.5734 30.3735C7.5734 26.3995 10.6835 22.9439 14.6575 22.5983H16.2125L16.3853 21.2161C17.0765 14.9959 22.2599 10.5035 28.3073 10.5035C35.0459 10.5035 40.4022 15.8598 40.4022 22.5983H43.8578C43.8578 13.9592 36.9465 7.04785 28.3073 7.04785Z" fill="#14733A"/>
</svg>
