<svg width="56" height="56" viewBox="0 0 56 56" fill="none" xmlns="http://www.w3.org/2000/svg">
<g clip-path="url(#clip0_8_63)">
<path d="M55.9542 19.6156H50.7707V9.24863C50.7707 7.34802 49.2156 5.79297 47.315 5.79297H23.1254C21.2248 5.79297 19.6697 7.34802 19.6697 9.24863V16.1599H23.1254V9.24863H47.315V33.4382H23.1254V26.5269H19.6697V33.4382C19.6697 35.3389 21.2248 36.8939 23.1254 36.8939H47.315C49.2156 36.8939 50.7707 35.3389 50.7707 33.4382V23.0713H55.9542V19.6156Z" fill="#14733A"/>
<path d="M36.9491 29.9822V23.0709C36.9491 21.1703 35.3941 19.6152 33.4935 19.6152H9.30388C7.40327 19.6152 5.84822 21.1703 5.84822 23.0709V33.4379H0.664734V36.8935H5.84822V47.2605C5.84822 49.1611 7.40327 50.7162 9.30388 50.7162H33.4935C35.3941 50.7162 36.9491 49.1611 36.9491 47.2605V40.3492H33.4935V47.2605H9.30388V23.0709H33.4935V29.9822H36.9491Z" fill="#14733A"/>
</g>
<defs>
<clipPath id="clip0_8_63">
<rect width="55.2905" height="55.2905" fill="white" transform="translate(0.664062 0.609375)"/>
</clipPath>
</defs>
</svg>
