<svg width="57" height="56" viewBox="0 0 57 56" fill="none" xmlns="http://www.w3.org/2000/svg">
<path d="M16.3824 12.7042C17.3366 12.7042 18.1102 11.9306 18.1102 10.9764C18.1102 10.0221 17.3366 9.24854 16.3824 9.24854C15.4281 9.24854 14.6545 10.0221 14.6545 10.9764C14.6545 11.9306 15.4281 12.7042 16.3824 12.7042Z" fill="#14733A"/>
<path d="M45.7577 4.06543H11.2011C10.2846 4.06543 9.40562 4.42951 8.75756 5.07757C8.1095 5.72563 7.74542 6.60459 7.74542 7.52109V14.4324C7.74542 15.3489 8.1095 16.2279 8.75756 16.8759C9.40562 17.524 10.2846 17.8881 11.2011 17.8881H26.7515V24.7994H30.2072V17.8881H45.7577C46.6742 17.8881 47.5531 17.524 48.2012 16.8759C48.8492 16.2279 49.2133 15.3489 49.2133 14.4324V7.52109C49.2133 6.60459 48.8492 5.72563 48.2012 5.07757C47.5531 4.42951 46.6742 4.06543 45.7577 4.06543ZM45.7577 14.4324H11.2011V7.52109H45.7577V14.4324ZM30.2072 48.989V45.5333H26.7515V48.989H7.74542V52.4446H49.2133V48.989H30.2072Z" fill="#14733A"/>
<path d="M16.3824 36.8936C17.3366 36.8936 18.1102 36.1201 18.1102 35.1658C18.1102 34.2116 17.3366 33.438 16.3824 33.438C15.4281 33.438 14.6545 34.2116 14.6545 35.1658C14.6545 36.1201 15.4281 36.8936 16.3824 36.8936Z" fill="#14733A"/>
<path d="M11.2011 42.0775H45.7577C46.6742 42.0775 47.5531 41.7134 48.2012 41.0654C48.8492 40.4173 49.2133 39.5384 49.2133 38.6219V31.7105C49.2133 30.794 48.8492 29.9151 48.2012 29.267C47.5531 28.619 46.6742 28.2549 45.7577 28.2549H11.2011C10.2846 28.2549 9.40562 28.619 8.75756 29.267C8.1095 29.9151 7.74542 30.794 7.74542 31.7105V38.6219C7.74542 39.5384 8.1095 40.4173 8.75756 41.0654C9.40562 41.7134 10.2846 42.0775 11.2011 42.0775ZM11.2011 31.7105H45.7577V38.6219H11.2011V31.7105Z" fill="#14733A"/>
</svg>
