<svg width="57" height="60" viewBox="0 0 57 60" fill="none" xmlns="http://www.w3.org/2000/svg">
<g filter="url(#filter0_d_8_117)">
<path d="M41.2915 38.1484L18.1144 14.9713V3.5918H4.29181V17.4144H15.6713L38.8484 40.5915V51.971H52.671V38.1484H41.2915ZM14.6588 13.9588H7.74747V7.04746H14.6588V13.9588ZM49.2154 48.5154H42.3041V41.604H49.2154V48.5154Z" fill="#14733A"/>
<path d="M52.6723 10.5032C52.6778 8.8212 52.0683 7.19524 50.9587 5.93127C49.849 4.6673 48.3156 3.85248 46.6471 3.64015C44.9786 3.42781 43.29 3.83262 41.8992 4.77837C40.5083 5.72412 39.511 7.14561 39.095 8.77532H23.2992V12.231H39.095C39.4045 13.4189 40.0253 14.5028 40.8934 15.3708C41.7614 16.2388 42.8453 16.8596 44.0332 17.1691V32.9649H47.4888V17.1691C48.9687 16.7883 50.2804 15.9272 51.2184 14.7209C52.1564 13.5146 52.6678 12.0312 52.6723 10.5032ZM45.761 13.9588C45.0775 13.9588 44.4094 13.7561 43.8411 13.3764C43.2729 12.9967 42.8299 12.457 42.5684 11.8256C42.3068 11.1941 42.2384 10.4993 42.3717 9.82899C42.5051 9.15866 42.8342 8.54292 43.3175 8.05963C43.8008 7.57635 44.4165 7.24723 45.0868 7.11389C45.7572 6.98056 46.452 7.04899 47.0834 7.31054C47.7149 7.57209 48.2546 8.01501 48.6343 8.58329C49.014 9.15157 49.2167 9.81969 49.2167 10.5032C49.2158 11.4194 48.8514 12.2978 48.2035 12.9457C47.5557 13.5935 46.6772 13.9579 45.761 13.9588ZM33.6662 43.3319H17.8704C17.5609 42.144 16.9401 41.0601 16.0721 40.1921C15.204 39.3241 14.1202 38.7033 12.9322 38.3938V22.598H9.47659V38.3938C8.29819 38.6963 7.22079 39.3052 6.35376 40.1586C5.48672 41.0121 4.86092 42.0797 4.53986 43.2532C4.2188 44.4267 4.21392 45.6642 4.52571 46.8402C4.8375 48.0162 5.45486 49.0887 6.31513 49.949C7.17541 50.8093 8.24797 51.4267 9.42395 51.7384C10.5999 52.0502 11.8375 52.0454 13.0109 51.7243C14.1844 51.4032 15.2521 50.7774 16.1055 49.9104C16.959 49.0434 17.5679 47.966 17.8704 46.7876H33.6662V43.3319ZM11.2044 48.5154C10.521 48.5154 9.85284 48.3127 9.28456 47.933C8.71628 47.5533 8.27336 47.0136 8.0118 46.3822C7.75025 45.7507 7.68182 45.0559 7.81516 44.3856C7.9485 43.7152 8.27762 43.0995 8.7609 42.6162C9.24418 42.1329 9.85992 41.8038 10.5303 41.6705C11.2006 41.5371 11.8954 41.6056 12.5268 41.8671C13.1583 42.1287 13.698 42.5716 14.0777 43.1399C14.4574 43.7082 14.6601 44.3763 14.6601 45.0597C14.6592 45.976 14.2948 46.8544 13.6469 47.5023C12.9991 48.1501 12.1206 48.5145 11.2044 48.5154Z" fill="#14733A"/>
</g>
<defs>
<filter id="filter0_d_8_117" x="-3.16602" y="0.13623" width="63.2905" height="63.2905" filterUnits="userSpaceOnUse" color-interpolation-filters="sRGB">
<feFlood flood-opacity="0" result="BackgroundImageFix"/>
<feColorMatrix in="SourceAlpha" type="matrix" values="0 0 0 0 0 0 0 0 0 0 0 0 0 0 0 0 0 0 127 0" result="hardAlpha"/>
<feOffset dy="4"/>
<feGaussianBlur stdDeviation="2"/>
<feComposite in2="hardAlpha" operator="out"/>
<feColorMatrix type="matrix" values="0 0 0 0 0 0 0 0 0 0 0 0 0 0 0 0 0 0 0.25 0"/>
<feBlend mode="normal" in2="BackgroundImageFix" result="effect1_dropShadow_8_117"/>
<feBlend mode="normal" in="SourceGraphic" in2="effect1_dropShadow_8_117" result="shape"/>
</filter>
</defs>
</svg>
