<svg width="32" height="32" viewBox="0 0 32 32" fill="none" xmlns="http://www.w3.org/2000/svg">
<rect x="0.0996094" y="0.278931" width="31.2025" height="31.4259" rx="6.10525" fill="#143773"/>
<g clip-path="url(#clip0_1098_965)">
<path d="M18.2793 21.6418H21.768V25.0214H18.2793V21.6418ZM24.3845 21.6418H27.8733V25.0214H24.3845V21.6418ZM18.2793 15.7273H21.768V19.107H18.2793V15.7273ZM24.3845 15.7273H27.8733V19.107H24.3845V15.7273Z" fill="white"/>
<path d="M15.6617 5.58862C11.9113 5.58862 8.77146 8.12339 7.9865 11.5876C5.36996 12.0945 3.45117 14.3758 3.45117 16.9951C3.45117 20.0368 5.98049 22.4871 9.12033 22.4871H15.6617V20.7972H9.12033C6.93988 20.7972 5.19553 19.1074 5.19553 16.9951C5.19553 15.0518 6.76545 13.3619 8.77146 13.1929H9.55642L9.64364 12.517C9.99251 9.47527 12.609 7.27847 15.6617 7.27847C19.0632 7.27847 21.7669 9.89773 21.7669 13.1929H23.5113C23.5113 8.96831 20.0226 5.58862 15.6617 5.58862Z" fill="white"/>
</g>
<defs>
<clipPath id="clip0_1098_965">
<rect width="27.9097" height="27.0375" fill="white" transform="translate(1.70898 2.20789)"/>
</clipPath>
</defs>
</svg>
