<svg width="32" height="32" viewBox="0 0 32 32" fill="none" xmlns="http://www.w3.org/2000/svg">
<rect x="0.783203" y="0.278931" width="31.2025" height="31.4259" rx="6.10525" fill="#143773"/>
<path d="M22.0298 20.5601L11.8172 10.3475V5.33337H5.72656V11.4241H10.7407L20.9533 21.6366V26.6507H27.0439V20.5601H22.0298ZM10.2946 9.90138H7.24923V6.85604H10.2946V9.90138ZM25.5213 25.1281H22.4759V22.0827H25.5213V25.1281Z" fill="white"/>
<path d="M27.0468 8.3782C27.0492 7.63708 26.7807 6.92063 26.2917 6.36369C25.8028 5.80675 25.1271 5.44771 24.3919 5.35415C23.6567 5.26059 22.9127 5.43896 22.2998 5.85569C21.687 6.27241 21.2475 6.89877 21.0643 7.61687H14.1041V9.13954H21.0643C21.2006 9.66297 21.4742 10.1406 21.8566 10.523C22.2391 10.9055 22.7167 11.1791 23.2401 11.3154V18.2755H24.7628V11.3154C25.4149 11.1476 25.9929 10.7682 26.4062 10.2367C26.8195 9.70515 27.0448 9.05152 27.0468 8.3782ZM24.0015 9.90087C23.7003 9.90087 23.4059 9.81157 23.1555 9.64425C22.9051 9.47694 22.71 9.23913 22.5947 8.9609C22.4795 8.68267 22.4493 8.37651 22.5081 8.08114C22.5668 7.78577 22.7118 7.51446 22.9248 7.30151C23.1377 7.08856 23.4091 6.94354 23.7044 6.88479C23.9998 6.82604 24.306 6.85619 24.5842 6.97144C24.8624 7.08669 25.1002 7.28185 25.2675 7.53225C25.4349 7.78265 25.5242 8.07705 25.5242 8.3782C25.5238 8.78191 25.3632 9.16898 25.0777 9.45445C24.7923 9.73991 24.4052 9.90047 24.0015 9.90087ZM18.6721 22.8436H11.712C11.5756 22.3201 11.3021 21.8425 10.9196 21.4601C10.5371 21.0776 10.0596 20.804 9.53612 20.6677V13.7075H8.01345V20.6677C7.49421 20.801 7.01948 21.0692 6.63744 21.4453C6.2554 21.8214 5.97965 22.2918 5.83818 22.8089C5.69671 23.326 5.69456 23.8712 5.83194 24.3894C5.96933 24.9076 6.24136 25.3802 6.62042 25.7593C6.99948 26.1383 7.47209 26.4104 7.99026 26.5477C8.50843 26.6851 9.05373 26.683 9.5708 26.5415C10.0879 26.4 10.5583 26.1243 10.9344 25.7422C11.3104 25.3602 11.5787 24.8855 11.712 24.3662H18.6721V22.8436ZM8.77479 25.1276C8.47363 25.1276 8.17924 25.0383 7.92884 24.8709C7.67844 24.7036 7.48327 24.4658 7.36803 24.1876C7.25278 23.9094 7.22263 23.6032 7.28138 23.3078C7.34013 23.0125 7.48515 22.7411 7.6981 22.5282C7.91105 22.3153 8.18236 22.1702 8.47773 22.1115C8.7731 22.0527 9.07926 22.0829 9.35749 22.1981C9.63572 22.3134 9.87353 22.5085 10.0408 22.7589C10.2082 23.0093 10.2975 23.3037 10.2975 23.6049C10.2971 24.0086 10.1365 24.3957 9.85103 24.6811C9.56557 24.9666 9.1785 25.1272 8.77479 25.1276Z" fill="white"/>
</svg>
