<svg width="33" height="33" viewBox="0 0 33 33" fill="none" xmlns="http://www.w3.org/2000/svg">
<rect x="0.939453" y="0.80542" width="31.2025" height="31.4259" rx="6.10525" fill="#143773"/>
<path d="M11.2197 9.67177C11.6399 9.67177 11.9805 9.33117 11.9805 8.91102C11.9805 8.49087 11.6399 8.15027 11.2197 8.15027C10.7996 8.15027 10.459 8.49087 10.459 8.91102C10.459 9.33117 10.7996 9.67177 11.2197 9.67177Z" fill="white"/>
<path d="M24.1525 5.86816H8.93752C8.53399 5.86816 8.14699 6.02846 7.86165 6.3138C7.57632 6.59914 7.41602 6.98614 7.41602 7.38967V10.4327C7.41602 10.8362 7.57632 11.2232 7.86165 11.5085C8.14699 11.7939 8.53399 11.9542 8.93752 11.9542H15.7843V14.9972H17.3058V11.9542H24.1525C24.5561 11.9542 24.9431 11.7939 25.2284 11.5085C25.5137 11.2232 25.674 10.8362 25.674 10.4327V7.38967C25.674 6.98614 25.5137 6.59914 25.2284 6.3138C24.9431 6.02846 24.5561 5.86816 24.1525 5.86816ZM24.1525 10.4327H8.93752V7.38967H24.1525V10.4327ZM17.3058 25.6477V24.1262H15.7843V25.6477H7.41602V27.1692H25.674V25.6477H17.3058Z" fill="white"/>
<path d="M11.2197 20.3222C11.6399 20.3222 11.9805 19.9816 11.9805 19.5614C11.9805 19.1413 11.6399 18.8007 11.2197 18.8007C10.7996 18.8007 10.459 19.1413 10.459 19.5614C10.459 19.9816 10.7996 20.3222 11.2197 20.3222Z" fill="white"/>
<path d="M8.93752 22.6044H24.1525C24.5561 22.6044 24.9431 22.4441 25.2284 22.1588C25.5137 21.8735 25.674 21.4865 25.674 21.0829V18.0399C25.674 17.6364 25.5137 17.2494 25.2284 16.9641C24.9431 16.6787 24.5561 16.5184 24.1525 16.5184H8.93752C8.53399 16.5184 8.14699 16.6787 7.86165 16.9641C7.57632 17.2494 7.41602 17.6364 7.41602 18.0399V21.0829C7.41602 21.4865 7.57632 21.8735 7.86165 22.1588C8.14699 22.4441 8.53399 22.6044 8.93752 22.6044ZM8.93752 18.0399H24.1525V21.0829H8.93752V18.0399Z" fill="white"/>
</svg>
