<svg width="19" height="18" viewBox="0 0 19 18" fill="none" xmlns="http://www.w3.org/2000/svg">
<g clip-path="url(#clip0_1104_61)">
<path d="M9.56511 0.183594C4.84376 0.183594 1.00195 4.02433 1.00195 8.74621C1.00195 13.4681 4.84376 17.3088 9.56511 17.3088C14.2865 17.3088 18.1283 13.4681 18.1283 8.74621C18.1283 4.02433 14.2865 0.183594 9.56511 0.183594ZM9.56511 16.7385C5.1583 16.7385 1.57336 13.153 1.57336 8.74621C1.57336 4.33941 5.1583 0.753936 9.56511 0.753936C13.9719 0.753936 17.5568 4.33941 17.5568 8.74621C17.5568 13.153 13.9719 16.7385 9.56511 16.7385Z" fill="#596771"/>
<path d="M9.56511 16.7385C5.1583 16.7385 1.57336 13.153 1.57336 8.74621C1.57336 4.33941 5.1583 0.753936 9.56511 0.753936C13.9719 0.753936 17.5568 4.33941 17.5568 8.74621C17.5568 13.153 13.9719 16.7385 9.56511 16.7385Z" fill="white"/>
<path d="M11.4114 3.89662H10.001C8.20476 3.87864 7.97534 4.99034 7.97534 6.19349V7.06836H7.1824C7.14656 7.06358 7.1101 7.06712 7.07585 7.07871C7.0416 7.0903 7.01048 7.10962 6.98492 7.13519C6.95935 7.16076 6.94002 7.19188 6.92843 7.22613C6.91684 7.26038 6.9133 7.29684 6.91809 7.33268V8.91855C6.9133 8.95439 6.91684 8.99085 6.92843 9.0251C6.94002 9.05935 6.95935 9.09047 6.98492 9.11603C7.01048 9.1416 7.0416 9.16093 7.07585 9.17252C7.1101 9.18411 7.14656 9.18765 7.1824 9.18286H7.97534V13.1475C7.97093 13.1834 7.97479 13.2199 7.98662 13.2541C7.99845 13.2883 8.01794 13.3193 8.04359 13.3448C8.06925 13.3703 8.10039 13.3896 8.13464 13.4012C8.1689 13.4128 8.20536 13.4165 8.24123 13.4119H9.85618C10.0121 13.4298 10.1385 13.3035 10.0888 13.1475L10.0898 9.18286H11.4114C11.4472 9.18765 11.4837 9.18411 11.5179 9.17252C11.5522 9.16093 11.5833 9.1416 11.6089 9.11603C11.6344 9.09047 11.6538 9.05935 11.6654 9.0251C11.677 8.99085 11.6805 8.95439 11.6757 8.91855V7.33268C11.6805 7.29684 11.677 7.26038 11.6654 7.22613C11.6538 7.19188 11.6344 7.16076 11.6089 7.13519C11.5833 7.10962 11.5522 7.0903 11.5179 7.07871C11.4837 7.06712 11.4472 7.06358 11.4114 7.06836H10.0882L10.0898 6.27543C10.1411 5.93764 10.1411 5.99261 10.4546 6.01111H11.4003C11.4738 5.99473 11.552 6.00371 11.607 5.95032C11.662 5.89693 11.6937 5.82398 11.6752 5.7468V4.16093C11.6801 4.12512 11.6766 4.08867 11.6651 4.05441C11.6536 4.02016 11.6343 3.98902 11.6087 3.96344C11.5832 3.93786 11.5521 3.91852 11.5179 3.90693C11.4837 3.89534 11.4472 3.89181 11.4114 3.89662ZM11.1286 5.45289L10.4657 5.42751C9.64473 5.42751 9.57601 5.87314 9.57601 6.32935L9.5739 7.33162C9.57383 7.36873 9.58108 7.4055 9.59523 7.43981C9.60939 7.47412 9.63017 7.5053 9.65639 7.53157C9.68261 7.55783 9.71375 7.57867 9.74803 7.59289C9.78232 7.60711 9.81907 7.61443 9.85618 7.61443H11.1471V8.63573H9.85724C9.78232 8.63573 9.71047 8.66546 9.65744 8.71838C9.60442 8.77131 9.57456 8.8431 9.57442 8.91802L9.5739 12.8832H8.50396V8.91855C8.50396 8.7626 8.39771 8.63626 8.24123 8.63626H7.44671V7.61496H8.24123C8.27832 7.61502 8.31506 7.60776 8.34935 7.59361C8.38364 7.57946 8.4148 7.5587 8.44105 7.5325C8.49392 7.4791 8.50343 7.40721 8.50343 7.33215V6.19296C8.50343 5.00779 8.7429 4.44322 10.0005 4.44322H11.1281L11.1286 5.45289Z" fill="#596771"/>
<path d="M11.1286 5.45289L10.4657 5.42751C9.64473 5.42751 9.57601 5.87314 9.57601 6.32935L9.5739 7.33162C9.57383 7.36873 9.58108 7.4055 9.59523 7.43981C9.60939 7.47412 9.63017 7.5053 9.65639 7.53157C9.68261 7.55783 9.71375 7.57867 9.74803 7.59289C9.78232 7.60711 9.81907 7.61443 9.85618 7.61443H11.1471V8.63573H9.85724C9.78232 8.63573 9.71047 8.66546 9.65744 8.71838C9.60442 8.77131 9.57456 8.8431 9.57442 8.91802L9.5739 12.8832H8.50396V8.91855C8.50396 8.7626 8.39771 8.63626 8.24123 8.63626H7.44671V7.61496H8.24123C8.27832 7.61502 8.31506 7.60776 8.34935 7.59361C8.38364 7.57946 8.4148 7.5587 8.44105 7.5325C8.49392 7.4791 8.50343 7.40721 8.50343 7.33215V6.19296C8.50343 5.00779 8.7429 4.44322 10.0005 4.44322H11.1281L11.1286 5.45289Z" fill="#596771"/>
</g>
<defs>
<clipPath id="clip0_1104_61">
<rect width="17.4746" height="17.4746" fill="white" transform="translate(0.828125 0.184082)"/>
</clipPath>
</defs>
</svg>
