<svg width="17" height="17" viewBox="0 0 17 17" fill="none" xmlns="http://www.w3.org/2000/svg">
<path d="M3.85547 13.4583V2.72687C3.85547 2.54898 3.92613 2.37838 4.05192 2.2526C4.1777 2.12682 4.3483 2.05615 4.52618 2.05615H8.66584C9.02158 2.05623 9.36272 2.19761 9.61423 2.44919L12.8524 5.6874C13.104 5.93891 13.2454 6.28005 13.2455 6.63579V13.4583C13.2455 13.6362 13.1748 13.8068 13.049 13.9326C12.9232 14.0584 12.7526 14.129 12.5748 14.129H4.52618C4.3483 14.129 4.1777 14.0584 4.05192 13.9326C3.92613 13.8068 3.85547 13.6362 3.85547 13.4583Z" stroke="#73838B" stroke-width="1.34143" stroke-linejoin="round"/>
<path d="M8.55078 2.05615V6.08044C8.55078 6.25833 8.62145 6.42892 8.74723 6.55471C8.87301 6.68049 9.04361 6.75116 9.2215 6.75116H13.2458" stroke="#73838B" stroke-width="1.34143" stroke-linejoin="round"/>
</svg>
