<svg width="32" height="33" viewBox="0 0 32 33" fill="none" xmlns="http://www.w3.org/2000/svg">
<rect x="0.0996094" y="0.805176" width="31.2025" height="31.4259" rx="6.10525" fill="#143773"/>
<path d="M24.6881 27.1431H13.2459C12.3469 27.1431 11.6113 26.4075 11.6113 25.5085V22.2393H13.2459V25.5085H24.6881V14.0664H21.4189V12.4318H24.6881C25.5871 12.4318 26.3226 13.1673 26.3226 14.0664V25.5085C26.3226 26.4075 25.5871 27.1431 24.6881 27.1431Z" fill="white"/>
<path d="M18.9707 17.3355C18.5621 17.3355 18.2352 17.4172 17.9082 17.5807L14.6391 14.3115C14.8025 13.9846 14.8842 13.6577 14.8842 13.249C14.8842 11.8596 13.8218 10.7971 12.4324 10.7971C11.043 10.7971 9.98047 11.8596 9.98047 13.249C9.98047 14.6384 11.043 15.7009 12.4324 15.7009C12.841 15.7009 13.1679 15.6192 13.4948 15.4557L16.764 18.7249C16.6006 19.0518 16.5188 19.3787 16.5188 19.7874C16.5188 21.1768 17.5813 22.2393 18.9707 22.2393C20.3601 22.2393 21.4226 21.1768 21.4226 19.7874C21.4226 18.398 20.3601 17.3355 18.9707 17.3355ZM11.6151 13.249C11.6151 12.7586 11.942 12.4317 12.4324 12.4317C12.9227 12.4317 13.2497 12.7586 13.2497 13.249C13.2497 13.7394 12.9227 14.0663 12.4324 14.0663C11.942 14.0663 11.6151 13.7394 11.6151 13.249ZM18.9707 20.6047C18.4803 20.6047 18.1534 20.2777 18.1534 19.7874C18.1534 19.297 18.4803 18.9701 18.9707 18.9701C19.4611 18.9701 19.788 19.297 19.788 19.7874C19.788 20.2777 19.4611 20.6047 18.9707 20.6047Z" fill="white"/>
<path d="M6.71076 5.89319H18.1529C19.0519 5.89319 19.7875 6.62875 19.7875 7.52778V10.797H18.1529V7.52778H6.71076V18.9699H9.97994V20.6045H6.71076C5.81174 20.6045 5.07617 19.8689 5.07617 18.9699V7.52778C5.07617 6.62875 5.81174 5.89319 6.71076 5.89319Z" fill="white"/>
</svg>
