<svg width="32" height="33" viewBox="0 0 32 33" fill="none" xmlns="http://www.w3.org/2000/svg">
<rect x="0.779297" y="0.805176" width="31.2025" height="31.4259" rx="6.10525" fill="#143773"/>
<g clip-path="url(#clip0_1098_1000)">
<path d="M28.5869 12.7033H26.2983V8.12598C26.2983 7.28681 25.6117 6.60022 24.7725 6.60022H14.0922C13.253 6.60022 12.5664 7.28681 12.5664 8.12598V11.1775H14.0922V8.12598H24.7725V18.8063H14.0922V15.7548H12.5664V18.8063C12.5664 19.6455 13.253 20.3321 14.0922 20.3321H24.7725C25.6117 20.3321 26.2983 19.6455 26.2983 18.8063V14.229H28.5869V12.7033Z" fill="white"/>
<path d="M20.1963 17.2808V14.2293C20.1963 13.3901 19.5097 12.7035 18.6705 12.7035H7.99019C7.15102 12.7035 6.46443 13.3901 6.46443 14.2293V18.8065H4.17578V20.3323H6.46443V24.9096C6.46443 25.7488 7.15102 26.4354 7.99019 26.4354H18.6705C19.5097 26.4354 20.1963 25.7488 20.1963 24.9096V21.8581H18.6705V24.9096H7.99019V14.2293H18.6705V17.2808H20.1963Z" fill="white"/>
</g>
<defs>
<clipPath id="clip0_1098_1000">
<rect width="24.4122" height="24.4122" fill="white" transform="translate(4.17383 4.31189)"/>
</clipPath>
</defs>
</svg>
