<svg width="18" height="18" viewBox="0 0 18 18" fill="none" xmlns="http://www.w3.org/2000/svg">
<g clip-path="url(#clip0_1104_69)">
<path d="M8.98112 0.183594C4.25977 0.183594 0.417969 4.02433 0.417969 8.74621C0.417969 13.4681 4.25977 17.3088 8.98112 17.3088C13.7025 17.3088 17.5443 13.4681 17.5443 8.74621C17.5443 4.02433 13.7025 0.183594 8.98112 0.183594ZM8.98112 16.7385C4.57432 16.7385 0.98938 13.153 0.98938 8.74621C0.98938 4.33941 4.57432 0.753936 8.98112 0.753936C13.3879 0.753936 16.9729 4.33941 16.9729 8.74621C16.9729 13.153 13.3879 16.7385 8.98112 16.7385Z" fill="#596771"/>
<path d="M8.98112 16.7385C4.57432 16.7385 0.98938 13.153 0.98938 8.74621C0.98938 4.33941 4.57432 0.753936 8.98112 0.753936C13.3879 0.753936 16.9729 4.33941 16.9729 8.74621C16.9729 13.153 13.3879 16.7385 8.98112 16.7385Z" fill="white"/>
<path fill-rule="evenodd" clip-rule="evenodd" d="M13.3541 12.1451C13.3541 12.679 12.9173 13.1159 12.3834 13.1159H5.58754C5.05369 13.1159 4.61682 12.679 4.61682 12.1451V5.34926C4.61682 4.81541 5.05369 4.37854 5.58754 4.37854H12.3834C12.9173 4.37854 13.3541 4.81541 13.3541 5.34926V12.1451ZM10.839 10.6007C11.3305 10.1091 11.6067 9.44239 11.6067 8.7472C11.6067 8.59779 11.591 8.45188 11.5639 8.31034H12.4804V11.8026C12.4804 11.9191 12.4342 12.0307 12.352 12.1131C12.2698 12.1955 12.1582 12.2419 12.0418 12.2421H5.93004C5.68715 12.2421 5.49056 12.0455 5.49056 11.8026V8.31034H6.4071C6.38001 8.45188 6.36429 8.59779 6.36429 8.7472C6.36429 9.44239 6.64045 10.1091 7.13202 10.6007C7.62359 11.0922 8.2903 11.3684 8.98548 11.3684C9.68067 11.3684 10.3474 11.0922 10.839 10.6007ZM9.65434 10.3614C9.4423 10.4493 9.21502 10.4946 8.98548 10.4947C8.52191 10.4948 8.07728 10.3107 7.7494 9.98303C7.42153 9.65531 7.23726 9.21078 7.23715 8.7472C7.23703 8.28363 7.42107 7.839 7.74879 7.51112C8.0765 7.18325 8.52104 6.99898 8.98461 6.99886C9.21415 6.99881 9.44145 7.04396 9.65354 7.13175C9.86562 7.21954 10.0583 7.34824 10.2207 7.5105C10.383 7.67277 10.5118 7.86543 10.5997 8.07747C10.6876 8.28951 10.7329 8.51679 10.7329 8.74633C10.733 8.97587 10.6879 9.20317 10.6001 9.41525C10.5123 9.62734 10.3836 9.82006 10.2213 9.98241C10.059 10.1448 9.86639 10.2736 9.65434 10.3614ZM12.13 6.91237H11.0824C10.9383 6.91237 10.8203 6.79441 10.8194 6.65025V5.60264C10.8194 5.53289 10.8472 5.466 10.8965 5.41668C10.9458 5.36736 11.0127 5.33965 11.0824 5.33965H12.13C12.1998 5.33965 12.2667 5.36736 12.316 5.41668C12.3653 5.466 12.393 5.53289 12.393 5.60264V6.65025C12.3928 6.71984 12.365 6.78651 12.3157 6.83565C12.2664 6.88478 12.1996 6.91237 12.13 6.91237Z" fill="#596771"/>
</g>
<defs>
<clipPath id="clip0_1104_69">
<rect width="17.4746" height="17.4746" fill="white" transform="translate(0.244141 0.184082)"/>
</clipPath>
</defs>
</svg>
