<svg width="18" height="18" viewBox="0 0 18 18" fill="none" xmlns="http://www.w3.org/2000/svg">
<g clip-path="url(#clip0_1104_65)">
<path d="M9.14909 0.184082C4.42774 0.184082 0.585938 4.02482 0.585938 8.7467C0.585938 13.4686 4.42774 17.3093 9.14909 17.3093C13.8704 17.3093 17.7122 13.4686 17.7122 8.7467C17.7122 4.02482 13.8704 0.184082 9.14909 0.184082ZM9.14909 16.739C4.74228 16.739 1.15735 13.1535 1.15735 8.7467C1.15735 4.33989 4.74228 0.754425 9.14909 0.754425C13.5559 0.754425 17.1408 4.33989 17.1408 8.7467C17.1408 13.1535 13.5559 16.739 9.14909 16.739Z" fill="#596771"/>
<path d="M9.14909 16.739C4.74228 16.739 1.15735 13.1535 1.15735 8.7467C1.15735 4.33989 4.74228 0.754425 9.14909 0.754425C13.5559 0.754425 17.1408 4.33989 17.1408 8.7467C17.1408 13.1535 13.5559 16.739 9.14909 16.739Z" fill="white"/>
<path d="M7.09432 12.3986H5.39579V6.93252H7.09432V12.3986Z" fill="#596771"/>
<path d="M6.23457 6.26149C5.6981 6.26149 5.35123 5.88142 5.35123 5.41135C5.35123 4.93167 5.70858 4.56296 6.25641 4.56296C6.80424 4.56296 7.13976 4.93167 7.15024 5.41135C7.15024 5.88142 6.80424 6.26149 6.23457 6.26149Z" fill="#596771"/>
<path d="M13.2978 12.3986H11.5993V9.36936C11.5993 8.66426 11.3529 8.18545 10.7387 8.18545C10.2695 8.18545 9.99075 8.50961 9.86755 8.82153C9.82211 8.93249 9.81076 9.08976 9.81076 9.24616V12.3977H8.11135V8.67562C8.11135 7.99323 8.0895 7.42268 8.06679 6.93165H9.54252L9.62028 7.69092H9.65436C9.87803 7.33444 10.4259 6.80845 11.3424 6.80845C12.4599 6.80845 13.2978 7.55724 13.2978 9.16665V12.3986Z" fill="#596771"/>
</g>
<defs>
<clipPath id="clip0_1104_65">
<rect width="17.4746" height="17.4746" fill="white" transform="translate(0.412109 0.184082)"/>
</clipPath>
</defs>
</svg>
