<svg width="19" height="10" viewBox="0 0 19 10" fill="none" xmlns="http://www.w3.org/2000/svg">
<path d="M8.77816 8.37595C9.46511 7.60791 9.86767 6.62739 9.91859 5.59822C9.96951 4.56906 9.66569 3.55359 9.0579 2.7215C8.45012 1.88941 7.57518 1.29111 6.57929 1.02657C5.5834 0.762024 4.52689 0.847266 3.5863 1.26805C2.6457 1.68883 1.878 2.41967 1.41148 3.33843C0.944951 4.2572 0.807865 5.30824 1.02312 6.31593C1.23837 7.32363 1.79293 8.22692 2.59413 8.87489C3.39532 9.52286 4.39463 9.87624 5.42505 9.87599H9.94182V8.37595H8.77816ZM2.43329 5.37467C2.43329 4.78225 2.60896 4.20314 2.93809 3.71056C3.26722 3.21798 3.73503 2.83406 4.28236 2.60735C4.82968 2.38064 5.43194 2.32132 6.01298 2.4369C6.59402 2.55247 7.12773 2.83775 7.54664 3.25665C7.96554 3.67556 8.25082 4.20928 8.36639 4.79031C8.48197 5.37135 8.42265 5.97361 8.19594 6.52094C7.96923 7.06826 7.58532 7.53607 7.09274 7.8652C6.60016 8.19433 6.02104 8.37 5.42862 8.37C5.03522 8.37016 4.64565 8.29279 4.28217 8.14231C3.91869 7.99184 3.58843 7.77121 3.31025 7.49304C3.03208 7.21487 2.81145 6.8846 2.66098 6.52112C2.51051 6.15764 2.43313 5.76807 2.43329 5.37467Z" fill="#3E5685"/>
<path d="M17.4573 7.93604C17.0013 8.22228 16.477 8.38113 15.9388 8.39607C15.4007 8.411 14.8683 8.28147 14.3972 8.02096C13.9261 7.76044 13.5333 7.37845 13.2598 6.91471C12.9863 6.45098 12.8421 5.92244 12.8421 5.38407C12.8421 4.8457 12.9863 4.31716 13.2598 3.85342C13.5333 3.38969 13.9261 3.0077 14.3972 2.74718C14.8683 2.48666 15.4007 2.35713 15.9388 2.37207C16.477 2.387 17.0013 2.54585 17.4573 2.83209L18.6721 1.93706C18.0097 1.39446 17.2065 1.05171 16.3565 0.948886C15.5064 0.846066 14.6447 0.987437 13.872 1.35646C13.0994 1.72548 12.4478 2.30689 11.9935 3.03268C11.5392 3.75847 11.301 4.59862 11.3067 5.45484C11.3125 6.31106 11.5619 7.14795 12.0258 7.8676C12.4898 8.58725 13.1491 9.1599 13.9266 9.51857C14.7041 9.87723 15.5677 10.0071 16.4162 9.8929C17.2648 9.77873 18.0634 9.42527 18.7184 8.87386L17.4573 7.93604Z" fill="#3E5685"/>
</svg>
