<svg width="16" height="15" viewBox="0 0 16 15" fill="none" xmlns="http://www.w3.org/2000/svg">
<path fill-rule="evenodd" clip-rule="evenodd" d="M9.44847 3.8527V2.63472H7.01252V3.8527H9.44847ZM3.3586 5.07067V11.7695H13.1024V5.07067H3.3586ZM13.1024 3.8527C13.7784 3.8527 14.3204 4.3947 14.3204 5.07067V11.7695C14.3204 12.4455 13.7784 12.9875 13.1024 12.9875H3.3586C2.68262 12.9875 2.14062 12.4455 2.14062 11.7695L2.14671 5.07067C2.14671 4.3947 2.68262 3.8527 3.3586 3.8527H5.79455V2.63472C5.79455 1.95875 6.33655 1.41675 7.01252 1.41675H9.44847C10.1244 1.41675 10.6664 1.95875 10.6664 2.63472V3.8527H13.1024Z" fill="#3E5685"/>
</svg>
