<svg width="16" height="16" viewBox="0 0 16 16" fill="none" xmlns="http://www.w3.org/2000/svg">
<path d="M3.92773 3.4032C3.92773 3.0618 4.06335 2.73439 4.30475 2.49299C4.54616 2.25159 4.87357 2.11597 5.21496 2.11597H11.6511C11.9925 2.11597 12.3199 2.25159 12.5613 2.49299C12.8027 2.73439 12.9383 3.0618 12.9383 3.4032V12.4138C12.9383 12.7552 12.8027 13.0826 12.5613 13.324C12.3199 13.5654 11.9925 13.701 11.6511 13.701H5.21496C4.87357 13.701 4.54616 13.5654 4.30475 13.324C4.06335 13.0826 3.92773 12.7552 3.92773 12.4138V3.4032Z" stroke="#3E5685" stroke-width="1.16157" stroke-linecap="round" stroke-linejoin="round"/>
<path d="M7.98917 8.49809V5.55053C7.98917 5.43327 8.03576 5.32081 8.11867 5.2379C8.20159 5.15498 8.31405 5.1084 8.43131 5.1084C8.54857 5.1084 8.66103 5.15498 8.74394 5.2379C8.82686 5.32081 8.87344 5.43327 8.87344 5.55053V8.49809C8.87344 8.61535 8.82686 8.72781 8.74394 8.81073C8.66103 8.89364 8.54857 8.94022 8.43131 8.94022C8.31405 8.94022 8.20159 8.89364 8.11867 8.81073C8.03576 8.72781 7.98917 8.61535 7.98917 8.49809ZM8.84816 10.5361C8.95871 10.4255 9.02082 10.2756 9.02082 10.1192C9.02082 9.9629 8.95871 9.81296 8.84816 9.7024C8.7376 9.59185 8.58766 9.52974 8.43131 9.52974C8.27496 9.52974 8.12502 9.59185 8.01446 9.7024C7.90391 9.81296 7.8418 9.9629 7.8418 10.1192C7.8418 10.2756 7.90391 10.4255 8.01446 10.5361C8.12502 10.6466 8.27496 10.7088 8.43131 10.7088C8.58766 10.7088 8.7376 10.6466 8.84816 10.5361Z" fill="#3E5685"/>
<path d="M7.98917 8.49809V5.55053C7.98917 5.43327 8.03576 5.32081 8.11867 5.2379C8.20159 5.15498 8.31405 5.1084 8.43131 5.1084C8.54857 5.1084 8.66103 5.15498 8.74394 5.2379C8.82686 5.32081 8.87344 5.43327 8.87344 5.55053V8.49809C8.87344 8.61535 8.82686 8.72781 8.74394 8.81073C8.66103 8.89364 8.54857 8.94022 8.43131 8.94022C8.31405 8.94022 8.20159 8.89364 8.11867 8.81073C8.03576 8.72781 7.98917 8.61535 7.98917 8.49809ZM8.84816 10.5361C8.95871 10.4255 9.02082 10.2756 9.02082 10.1192C9.02082 9.9629 8.95871 9.81296 8.84816 9.7024C8.7376 9.59185 8.58766 9.52974 8.43131 9.52974C8.27496 9.52974 8.12502 9.59185 8.01446 9.7024C7.90391 9.81296 7.8418 9.9629 7.8418 10.1192C7.8418 10.2756 7.90391 10.4255 8.01446 10.5361C8.12502 10.6466 8.27496 10.7088 8.43131 10.7088C8.58766 10.7088 8.7376 10.6466 8.84816 10.5361Z" stroke="#3E5685"/>
</svg>
