<svg width="16" height="16" viewBox="0 0 16 16" fill="none" xmlns="http://www.w3.org/2000/svg">
<path d="M6.38227 4.71479H10.483M6.38227 7.44862H10.483M6.38227 10.1824H9.1161M3.64844 3.34787C3.64844 2.98534 3.79245 2.63766 4.0488 2.38132C4.30514 2.12497 4.65282 1.98096 5.01535 1.98096H11.8499C12.2125 1.98096 12.5601 2.12497 12.8165 2.38132C13.0728 2.63766 13.2168 2.98534 13.2168 3.34787V12.9163C13.2168 13.2788 13.0728 13.6265 12.8165 13.8828C12.5601 14.1392 12.2125 14.2832 11.8499 14.2832H5.01535C4.65282 14.2832 4.30514 14.1392 4.0488 13.8828C3.79245 13.6265 3.64844 13.2788 3.64844 12.9163V3.34787Z" stroke="#3E5685" stroke-width="1.23348" stroke-linecap="round" stroke-linejoin="round"/>
</svg>
