<svg width="15" height="14" viewBox="0 0 15 14" fill="none" xmlns="http://www.w3.org/2000/svg">
<g clip-path="url(#clip0_1104_118)">
<path d="M8.99456 1.22906C10.1738 1.35331 11.2753 1.87633 12.1169 2.71161C12.9585 3.5469 13.4897 4.64441 13.6229 5.82266M8.99456 3.54322C9.56356 3.65542 10.0857 3.93606 10.4932 4.34872C10.9007 4.76138 11.1748 5.28701 11.2798 5.85737M13.5939 9.86086V11.5965C13.5946 11.7576 13.5616 11.9171 13.497 12.0647C13.4325 12.2123 13.3378 12.3449 13.2191 12.4538C13.1004 12.5627 12.9602 12.6457 12.8076 12.6973C12.6549 12.7489 12.4932 12.7681 12.3327 12.7536C10.5525 12.5601 8.8424 11.9518 7.33994 10.9774C5.94209 10.0892 4.75695 8.90406 3.8687 7.50621C2.89096 5.99692 2.28249 4.27854 2.09259 2.49028C2.07813 2.33029 2.09714 2.16905 2.14842 2.01681C2.19969 1.86458 2.2821 1.72469 2.3904 1.60605C2.4987 1.48741 2.63051 1.39262 2.77746 1.32771C2.9244 1.26281 3.08324 1.22921 3.24388 1.22906H4.9795C5.26027 1.2263 5.53246 1.32572 5.74534 1.5088C5.95823 1.69188 6.09728 1.94613 6.13657 2.22415C6.20983 2.77958 6.34569 3.32495 6.54155 3.84984C6.61939 4.05691 6.63624 4.28196 6.5901 4.49831C6.54395 4.71467 6.43676 4.91326 6.28121 5.07056L5.54647 5.8053C6.37005 7.2537 7.5693 8.45296 9.0177 9.27654L9.75244 8.54179C9.90974 8.38625 10.1083 8.27905 10.3247 8.23291C10.541 8.18677 10.7661 8.20361 10.9732 8.28145C11.4981 8.47732 12.0434 8.61317 12.5989 8.68643C12.8799 8.72608 13.1366 8.86763 13.32 9.08417C13.5035 9.30071 13.601 9.57713 13.5939 9.86086Z" stroke="#3E5685" stroke-width="1.15708" stroke-linecap="round" stroke-linejoin="round"/>
</g>
<defs>
<clipPath id="clip0_1104_118">
<rect width="13.8849" height="13.8849" fill="white" transform="translate(0.865234 0.0717773)"/>
</clipPath>
</defs>
</svg>
