<svg width="18" height="19" viewBox="0 0 18 19" fill="none" xmlns="http://www.w3.org/2000/svg">
<path d="M7.52585 0.23999C11.2854 0.23999 14.3312 3.54191 14.3312 7.61767C14.3312 9.37945 13.7629 10.9947 12.8135 12.2644L17.4913 17.3356C17.7685 17.6361 17.7685 18.1207 17.4913 18.4212C17.2141 18.7218 16.7671 18.7218 16.4899 18.4212L11.8121 13.35C10.6409 14.3793 9.15095 14.9953 7.52585 14.9953C3.76628 14.9953 0.720501 11.6934 0.720501 7.61767C0.720501 3.54191 3.76974 0.23999 7.52585 0.23999ZM7.52585 13.4627C10.5023 13.4627 12.9175 10.8445 12.9175 7.61767C12.9175 4.39087 10.5023 1.77262 7.52585 1.77262C4.54938 1.77262 2.13424 4.39087 2.13424 7.61767C2.13424 10.8445 4.54938 13.4627 7.52585 13.4627Z" fill="#DDDDDE"/>
</svg>
